ISO-10303-21;
HEADER;
FILE_DESCRIPTION((''),'2;1');
FILE_NAME('KeeBordCase', '2026-08-14T22:05:00', (''), (''), 'ImageToStl.com STEP Converter','', '');
FILE_SCHEMA(('AUTOMOTIVE_DESIGN_CC2'));
ENDSEC;
DATA;
#1=PRODUCT_DEFINITION_CONTEXT('',#4,'design');
#2=APPLICATION_PROTOCOL_DEFINITION('INTERNATIONAL STANDARD','automotive_design',1994,#4);
#3=(GEOMETRIC_REPRESENTATION_CONTEXT(3)GLOBAL_UNCERTAINTY_ASSIGNED_CONTEXT((#5))GLOBAL_UNIT_ASSIGNED_CONTEXT((#6,#7,#8))REPRESENTATION_CONTEXT('NONE','WORKSPACE'));
#4=APPLICATION_CONTEXT(' ');
#5=UNCERTAINTY_MEASURE_WITH_UNIT(LENGTH_MEASURE(1.0E-006),#6,'','');
#6=(CONVERSION_BASED_UNIT('METRE',#10)LENGTH_UNIT()NAMED_UNIT(#11));
#7=(NAMED_UNIT(#12)PLANE_ANGLE_UNIT()SI_UNIT($,.RADIAN.));
#8=(NAMED_UNIT(#12)SOLID_ANGLE_UNIT()SI_UNIT($,.STERADIAN.));
#9=AXIS2_PLACEMENT_3D('',#14,#15,#16);
#10=LENGTH_MEASURE_WITH_UNIT(LENGTH_MEASURE(1.0),#17);
#11=DIMENSIONAL_EXPONENTS(1.0,0.0,0.0,0.0,0.0,0.0,0.0);
#12=DIMENSIONAL_EXPONENTS(0.0,0.0,0.0,0.0,0.0,0.0,0.0);
#13=PRODUCT_CONTEXT('',#4,'mechanical');
#14=CARTESIAN_POINT('',(0.0,0.0,0.0));
#15=DIRECTION('',(0.0,0.0,1.0));
#16=DIRECTION('',(1.0,0.0,0.0));
#17=(NAMED_UNIT(#11)LENGTH_UNIT()SI_UNIT(.MILLI.,.METRE.));
#18=PRESENTATION_STYLE_ASSIGNMENT((#19));
#19=SURFACE_STYLE_USAGE(.BOTH.,#20);
#20=SURFACE_SIDE_STYLE('',(#21));
#21=SURFACE_STYLE_FILL_AREA(#22);
#22=FILL_AREA_STYLE('',(#23));
#23=FILL_AREA_STYLE_COLOUR('',#24);
#24=COLOUR_RGB('',0.9,0.9,0.9);
#25=SHAPE_DEFINITION_REPRESENTATION(#26,#27);
#26=PRODUCT_DEFINITION_SHAPE('productshape0','',#30);
#27=MANIFOLD_SURFACE_SHAPE_REPRESENTATION('',(#28,#9),#3);
#28=SHELL_BASED_SURFACE_MODEL('shell0',(#33));
#29=PRODUCT('product0','','',(#13));
#30=PRODUCT_DEFINITION('mesh0','',#31,#2);
#31=PRODUCT_DEFINITION_FORMATION_WITH_SPECIFIED_SOURCE('prodsource0','',#29,.NOT_KNOWN.);
#32=STYLED_ITEM('',(#18),#33);
#33=CLOSED_SHELL('',(#106,#128,#150,#172,#194,#216,#238,#260,#282,#304,#326,#348,#370,#392,#414,#436,#458,#480,#502,#524,#546,#568,#590,#612,#634,#656,#678,#700,#722,#744,#766,#788,#810,#832,#854,#876,#898,#920,#942,#964,#986,#1008,#1030,#1052,#1074,#1096,#1118,#1140,#1162,#1184,#1206,#1228,#1250,#1272,#1294,#1316,#1338,#1360,#1382,#1404,#1426,#1448,#1470,#1492,#1514,#1536,#1558,#1580));
#34=CARTESIAN_POINT('',(-0.1500301957130432,0.05100443214178085,-0.005434658844023943));
#35=VERTEX_POINT('',#34);
#36=CARTESIAN_POINT('',(-0.1500301957130432,0.05100443214178085,0.0066569289192557335));
#37=VERTEX_POINT('',#36);
#38=CARTESIAN_POINT('',(-0.1500301957130432,-0.05095388740301132,0.0066569289192557335));
#39=VERTEX_POINT('',#38);
#40=CARTESIAN_POINT('',(-0.1500301957130432,-0.05095388740301132,-0.005434658844023943));
#41=VERTEX_POINT('',#40);
#42=CARTESIAN_POINT('',(0.15016330778598785,-0.05095388740301132,0.0066569289192557335));
#43=VERTEX_POINT('',#42);
#44=CARTESIAN_POINT('',(0.15016330778598785,-0.05095388740301132,-0.005434658844023943));
#45=VERTEX_POINT('',#44);
#46=CARTESIAN_POINT('',(0.15016330778598785,0.05100443214178085,0.0066569289192557335));
#47=VERTEX_POINT('',#46);
#48=CARTESIAN_POINT('',(0.15016330778598785,0.05100443214178085,-0.005434658844023943));
#49=VERTEX_POINT('',#48);
#50=CARTESIAN_POINT('',(0.1269788146018982,0.05100443214178085,0.004094329662621021));
#51=VERTEX_POINT('',#50);
#52=CARTESIAN_POINT('',(0.1269788146018982,0.05100443214178085,0.0066569289192557335));
#53=VERTEX_POINT('',#52);
#54=CARTESIAN_POINT('',(0.1360168606042862,0.05100443214178085,0.0066569289192557335));
#55=VERTEX_POINT('',#54);
#56=CARTESIAN_POINT('',(0.1360168606042862,0.05100443214178085,0.004094329662621021));
#57=VERTEX_POINT('',#56);
#58=CARTESIAN_POINT('',(-0.148946151137352,0.04904777929186821,0.0066569289192557335));
#59=VERTEX_POINT('',#58);
#60=CARTESIAN_POINT('',(-0.148946151137352,-0.04899723827838898,0.0066569289192557335));
#61=VERTEX_POINT('',#60);
#62=CARTESIAN_POINT('',(0.14907923340797424,-0.04899723827838898,0.0066569289192557335));
#63=VERTEX_POINT('',#62);
#64=CARTESIAN_POINT('',(0.14907923340797424,0.04904777929186821,0.0066569289192557335));
#65=VERTEX_POINT('',#64);
#66=CARTESIAN_POINT('',(0.1269788146018982,0.04904777929186821,0.0066569289192557335));
#67=VERTEX_POINT('',#66);
#68=CARTESIAN_POINT('',(0.1360168606042862,0.04904777929186821,0.0066569289192557335));
#69=VERTEX_POINT('',#68);
#70=CARTESIAN_POINT('',(0.14907923340797424,-0.04899723827838898,-3.982930866186507E-05));
#71=VERTEX_POINT('',#70);
#72=CARTESIAN_POINT('',(0.14907923340797424,0.04904777929186821,-3.982930866186507E-05));
#73=VERTEX_POINT('',#72);
#74=CARTESIAN_POINT('',(-0.148946151137352,0.04904777929186821,-3.982930866186507E-05));
#75=VERTEX_POINT('',#74);
#76=CARTESIAN_POINT('',(0.14907923340797424,0.04904777929186821,-0.0007444659131579101));
#77=VERTEX_POINT('',#76);
#78=CARTESIAN_POINT('',(-0.148946151137352,0.04904777929186821,-0.0007444659131579101));
#79=VERTEX_POINT('',#78);
#80=CARTESIAN_POINT('',(-0.148946151137352,-0.04899723827838898,-3.982930866186507E-05));
#81=VERTEX_POINT('',#80);
#82=CARTESIAN_POINT('',(0.1269788146018982,0.04904777929186821,0.004094329662621021));
#83=VERTEX_POINT('',#82);
#84=CARTESIAN_POINT('',(0.1360168606042862,0.04904777929186821,0.004094329662621021));
#85=VERTEX_POINT('',#84);
#86=CARTESIAN_POINT('',(0.1443532556295395,0.04744262620806694,-0.0007444659131579101));
#87=VERTEX_POINT('',#86);
#88=CARTESIAN_POINT('',(0.1443532556295395,-0.0473920963704586,-0.0007444659131579101));
#89=VERTEX_POINT('',#88);
#90=CARTESIAN_POINT('',(0.1443532556295395,-0.0473920963704586,-0.0031666713766753674));
#91=VERTEX_POINT('',#90);
#92=CARTESIAN_POINT('',(0.1443532556295395,0.04744262620806694,-0.0031666713766753674));
#93=VERTEX_POINT('',#92);
#94=CARTESIAN_POINT('',(-0.148946151137352,-0.04899723827838898,-0.0007444659131579101));
#95=VERTEX_POINT('',#94);
#96=CARTESIAN_POINT('',(0.14907923340797424,-0.04899723827838898,-0.0007444659131579101));
#97=VERTEX_POINT('',#96);
#98=CARTESIAN_POINT('',(-0.14422014355659485,0.04744262620806694,-0.0007444659131579101));
#99=VERTEX_POINT('',#98);
#100=CARTESIAN_POINT('',(-0.14422014355659485,-0.0473920963704586,-0.0007444659131579101));
#101=VERTEX_POINT('',#100);
#102=CARTESIAN_POINT('',(-0.14422014355659485,-0.0473920963704586,-0.0031666713766753674));
#103=VERTEX_POINT('',#102);
#104=CARTESIAN_POINT('',(-0.14422014355659485,0.04744262620806694,-0.0031666713766753674));
#105=VERTEX_POINT('',#104);
#106=FACE_SURFACE('',(#111),#107,.T.);
#107=PLANE('',#108);
#108=AXIS2_PLACEMENT_3D('',#34,#109,#110);
#109=DIRECTION('',(1,0,-0));
#110=DIRECTION('',(0,0,1));
#111=FACE_BOUND('',#112,.T.);
#112=EDGE_LOOP('',(#113,#114,#115));
#113=ORIENTED_EDGE('',*,*,#116,.T.);
#114=ORIENTED_EDGE('',*,*,#117,.T.);
#115=ORIENTED_EDGE('',*,*,#118,.T.);
#116=EDGE_CURVE('',#35,#37,#119,.F.);
#117=EDGE_CURVE('',#37,#39,#120,.T.);
#118=EDGE_CURVE('',#39,#35,#121,.T.);
#119=LINE('',#34,#122);
#120=LINE('',#36,#123);
#121=LINE('',#38,#124);
#122=VECTOR('',#125,1.0);
#123=VECTOR('',#126,1.0);
#124=VECTOR('',#127,1.0);
#125=DIRECTION('',(0,0,1));
#126=DIRECTION('',(0,-1,0));
#127=DIRECTION('',(0,0.9930411170690067,-0.11776816127604074));
#128=FACE_SURFACE('',(#133),#129,.T.);
#129=PLANE('',#130);
#130=AXIS2_PLACEMENT_3D('',#34,#131,#132);
#131=DIRECTION('',(1,0,0));
#132=DIRECTION('',(0,-0.9930411170690067,0.11776816127604074));
#133=FACE_BOUND('',#134,.T.);
#134=EDGE_LOOP('',(#135,#136,#137));
#135=ORIENTED_EDGE('',*,*,#138,.T.);
#136=ORIENTED_EDGE('',*,*,#139,.T.);
#137=ORIENTED_EDGE('',*,*,#140,.T.);
#138=EDGE_CURVE('',#35,#39,#141,.F.);
#139=EDGE_CURVE('',#39,#41,#142,.T.);
#140=EDGE_CURVE('',#41,#35,#143,.T.);
#141=LINE('',#34,#144);
#142=LINE('',#38,#145);
#143=LINE('',#40,#146);
#144=VECTOR('',#147,1.0);
#145=VECTOR('',#148,1.0);
#146=VECTOR('',#149,1.0);
#147=DIRECTION('',(0,-0.9930411170690067,0.11776816127604074));
#148=DIRECTION('',(0,0,-1));
#149=DIRECTION('',(0,1,0));
#150=FACE_SURFACE('',(#155),#151,.T.);
#151=PLANE('',#152);
#152=AXIS2_PLACEMENT_3D('',#40,#153,#154);
#153=DIRECTION('',(0,1,0));
#154=DIRECTION('',(0,0,1));
#155=FACE_BOUND('',#156,.T.);
#156=EDGE_LOOP('',(#157,#158,#159));
#157=ORIENTED_EDGE('',*,*,#160,.T.);
#158=ORIENTED_EDGE('',*,*,#161,.T.);
#159=ORIENTED_EDGE('',*,*,#162,.T.);
#160=EDGE_CURVE('',#41,#39,#163,.F.);
#161=EDGE_CURVE('',#39,#43,#164,.T.);
#162=EDGE_CURVE('',#43,#41,#165,.T.);
#163=LINE('',#40,#166);
#164=LINE('',#38,#167);
#165=LINE('',#42,#168);
#166=VECTOR('',#169,1.0);
#167=VECTOR('',#170,1.0);
#168=VECTOR('',#171,1.0);
#169=DIRECTION('',(0,0,1));
#170=DIRECTION('',(1,0,0));
#171=DIRECTION('',(-0.9991897742791221,0,-0.04024667658374763));
#172=FACE_SURFACE('',(#177),#173,.T.);
#173=PLANE('',#174);
#174=AXIS2_PLACEMENT_3D('',#40,#175,#176);
#175=DIRECTION('',(0,1,0));
#176=DIRECTION('',(0.9991897742791221,0,0.04024667658374763));
#177=FACE_BOUND('',#178,.T.);
#178=EDGE_LOOP('',(#179,#180,#181));
#179=ORIENTED_EDGE('',*,*,#182,.T.);
#180=ORIENTED_EDGE('',*,*,#183,.T.);
#181=ORIENTED_EDGE('',*,*,#184,.T.);
#182=EDGE_CURVE('',#41,#43,#185,.F.);
#183=EDGE_CURVE('',#43,#45,#186,.T.);
#184=EDGE_CURVE('',#45,#41,#187,.T.);
#185=LINE('',#40,#188);
#186=LINE('',#42,#189);
#187=LINE('',#44,#190);
#188=VECTOR('',#191,1.0);
#189=VECTOR('',#192,1.0);
#190=VECTOR('',#193,1.0);
#191=DIRECTION('',(0.9991897742791221,0,0.04024667658374763));
#192=DIRECTION('',(0,0,-1));
#193=DIRECTION('',(-1,0,0));
#194=FACE_SURFACE('',(#199),#195,.T.);
#195=PLANE('',#196);
#196=AXIS2_PLACEMENT_3D('',#44,#197,#198);
#197=DIRECTION('',(-1,0,0));
#198=DIRECTION('',(0,0,1));
#199=FACE_BOUND('',#200,.T.);
#200=EDGE_LOOP('',(#201,#202,#203));
#201=ORIENTED_EDGE('',*,*,#204,.T.);
#202=ORIENTED_EDGE('',*,*,#205,.T.);
#203=ORIENTED_EDGE('',*,*,#206,.T.);
#204=EDGE_CURVE('',#45,#43,#207,.F.);
#205=EDGE_CURVE('',#43,#47,#208,.T.);
#206=EDGE_CURVE('',#47,#45,#209,.T.);
#207=LINE('',#44,#210);
#208=LINE('',#42,#211);
#209=LINE('',#46,#212);
#210=VECTOR('',#213,1.0);
#211=VECTOR('',#214,1.0);
#212=VECTOR('',#215,1.0);
#213=DIRECTION('',(0,0,1));
#214=DIRECTION('',(0,1,0));
#215=DIRECTION('',(0,-0.9930411170690067,-0.11776816127604074));
#216=FACE_SURFACE('',(#221),#217,.T.);
#217=PLANE('',#218);
#218=AXIS2_PLACEMENT_3D('',#44,#219,#220);
#219=DIRECTION('',(-1,0,0));
#220=DIRECTION('',(0,0.9930411170690067,0.11776816127604074));
#221=FACE_BOUND('',#222,.T.);
#222=EDGE_LOOP('',(#223,#224,#225));
#223=ORIENTED_EDGE('',*,*,#226,.T.);
#224=ORIENTED_EDGE('',*,*,#227,.T.);
#225=ORIENTED_EDGE('',*,*,#228,.T.);
#226=EDGE_CURVE('',#45,#47,#229,.F.);
#227=EDGE_CURVE('',#47,#49,#230,.T.);
#228=EDGE_CURVE('',#49,#45,#231,.T.);
#229=LINE('',#44,#232);
#230=LINE('',#46,#233);
#231=LINE('',#48,#234);
#232=VECTOR('',#235,1.0);
#233=VECTOR('',#236,1.0);
#234=VECTOR('',#237,1.0);
#235=DIRECTION('',(0,0.9930411170690067,0.11776816127604074));
#236=DIRECTION('',(0,0,-1));
#237=DIRECTION('',(0,-1,0));
#238=FACE_SURFACE('',(#243),#239,.T.);
#239=PLANE('',#240);
#240=AXIS2_PLACEMENT_3D('',#50,#241,#242);
#241=DIRECTION('',(0,-1,0));
#242=DIRECTION('',(0,0,1));
#243=FACE_BOUND('',#244,.T.);
#244=EDGE_LOOP('',(#245,#246,#247));
#245=ORIENTED_EDGE('',*,*,#248,.T.);
#246=ORIENTED_EDGE('',*,*,#249,.T.);
#247=ORIENTED_EDGE('',*,*,#250,.T.);
#248=EDGE_CURVE('',#51,#53,#251,.F.);
#249=EDGE_CURVE('',#53,#37,#252,.T.);
#250=EDGE_CURVE('',#37,#51,#253,.T.);
#251=LINE('',#50,#254);
#252=LINE('',#52,#255);
#253=LINE('',#36,#256);
#254=VECTOR('',#257,1.0);
#255=VECTOR('',#258,1.0);
#256=VECTOR('',#259,1.0);
#257=DIRECTION('',(0,0,1));
#258=DIRECTION('',(-1,0,0));
#259=DIRECTION('',(0.9999572126164182,0,-0.009250564112712314));
#260=FACE_SURFACE('',(#265),#261,.T.);
#261=PLANE('',#262);
#262=AXIS2_PLACEMENT_3D('',#36,#263,#264);
#263=DIRECTION('',(0,-1,0));
#264=DIRECTION('',(0,0,-1));
#265=FACE_BOUND('',#266,.T.);
#266=EDGE_LOOP('',(#267,#268,#269));
#267=ORIENTED_EDGE('',*,*,#270,.T.);
#268=ORIENTED_EDGE('',*,*,#271,.T.);
#269=ORIENTED_EDGE('',*,*,#272,.T.);
#270=EDGE_CURVE('',#37,#35,#273,.F.);
#271=EDGE_CURVE('',#35,#49,#274,.T.);
#272=EDGE_CURVE('',#49,#37,#275,.T.);
#273=LINE('',#36,#276);
#274=LINE('',#34,#277);
#275=LINE('',#48,#278);
#276=VECTOR('',#279,1.0);
#277=VECTOR('',#280,1.0);
#278=VECTOR('',#281,1.0);
#279=DIRECTION('',(0,0,-1));
#280=DIRECTION('',(1,0,0));
#281=DIRECTION('',(-0.9991897742791221,0,0.04024667658374763));
#282=FACE_SURFACE('',(#287),#283,.T.);
#283=PLANE('',#284);
#284=AXIS2_PLACEMENT_3D('',#48,#285,#286);
#285=DIRECTION('',(0,-1,0));
#286=DIRECTION('',(0,0,1));
#287=FACE_BOUND('',#288,.T.);
#288=EDGE_LOOP('',(#289,#290,#291));
#289=ORIENTED_EDGE('',*,*,#292,.T.);
#290=ORIENTED_EDGE('',*,*,#293,.T.);
#291=ORIENTED_EDGE('',*,*,#294,.T.);
#292=EDGE_CURVE('',#49,#47,#295,.F.);
#293=EDGE_CURVE('',#47,#55,#296,.T.);
#294=EDGE_CURVE('',#55,#49,#297,.T.);
#295=LINE('',#48,#298);
#296=LINE('',#46,#299);
#297=LINE('',#54,#300);
#298=VECTOR('',#301,1.0);
#299=VECTOR('',#302,1.0);
#300=VECTOR('',#303,1.0);
#301=DIRECTION('',(0,0,1));
#302=DIRECTION('',(-1,0,0));
#303=DIRECTION('',(0.760156983975612,0,-0.6497394552534893));
#304=FACE_SURFACE('',(#309),#305,.T.);
#305=PLANE('',#306);
#306=AXIS2_PLACEMENT_3D('',#48,#307,#308);
#307=DIRECTION('',(0,-1,0));
#308=DIRECTION('',(-0.760156983975612,0,0.6497394552534893));
#309=FACE_BOUND('',#310,.T.);
#310=EDGE_LOOP('',(#311,#312,#313));
#311=ORIENTED_EDGE('',*,*,#314,.T.);
#312=ORIENTED_EDGE('',*,*,#315,.T.);
#313=ORIENTED_EDGE('',*,*,#316,.T.);
#314=EDGE_CURVE('',#49,#55,#317,.F.);
#315=EDGE_CURVE('',#55,#57,#318,.T.);
#316=EDGE_CURVE('',#57,#49,#319,.T.);
#317=LINE('',#48,#320);
#318=LINE('',#54,#321);
#319=LINE('',#56,#322);
#320=VECTOR('',#323,1.0);
#321=VECTOR('',#324,1.0);
#322=VECTOR('',#325,1.0);
#323=DIRECTION('',(-0.760156983975612,0,0.6497394552534893));
#324=DIRECTION('',(0,0,-1));
#325=DIRECTION('',(0.8293883169737719,0,-0.5586725513817676));
#326=FACE_SURFACE('',(#331),#327,.T.);
#327=PLANE('',#328);
#328=AXIS2_PLACEMENT_3D('',#50,#329,#330);
#329=DIRECTION('',(-0,-1,-0));
#330=DIRECTION('',(-0.9999572126164182,0,0.009250564112712314));
#331=FACE_BOUND('',#332,.T.);
#332=EDGE_LOOP('',(#333,#334,#335));
#333=ORIENTED_EDGE('',*,*,#336,.T.);
#334=ORIENTED_EDGE('',*,*,#337,.T.);
#335=ORIENTED_EDGE('',*,*,#338,.T.);
#336=EDGE_CURVE('',#51,#37,#339,.F.);
#337=EDGE_CURVE('',#37,#49,#340,.T.);
#338=EDGE_CURVE('',#49,#51,#341,.T.);
#339=LINE('',#50,#342);
#340=LINE('',#36,#343);
#341=LINE('',#48,#344);
#342=VECTOR('',#345,1.0);
#343=VECTOR('',#346,1.0);
#344=VECTOR('',#347,1.0);
#345=DIRECTION('',(-0.9999572126164182,0,0.009250564112712314));
#346=DIRECTION('',(0.9991897742791221,0,-0.04024667658374763));
#347=DIRECTION('',(-0.9249246497972686,0,0.3801504862516949));
#348=FACE_SURFACE('',(#353),#349,.T.);
#349=PLANE('',#350);
#350=AXIS2_PLACEMENT_3D('',#48,#351,#352);
#351=DIRECTION('',(0,-1,0));
#352=DIRECTION('',(-0.8293883169737719,0,0.5586725513817676));
#353=FACE_BOUND('',#354,.T.);
#354=EDGE_LOOP('',(#355,#356,#357));
#355=ORIENTED_EDGE('',*,*,#358,.T.);
#356=ORIENTED_EDGE('',*,*,#359,.T.);
#357=ORIENTED_EDGE('',*,*,#360,.T.);
#358=EDGE_CURVE('',#49,#57,#361,.F.);
#359=EDGE_CURVE('',#57,#51,#362,.T.);
#360=EDGE_CURVE('',#51,#49,#363,.T.);
#361=LINE('',#48,#364);
#362=LINE('',#56,#365);
#363=LINE('',#50,#366);
#364=VECTOR('',#367,1.0);
#365=VECTOR('',#368,1.0);
#366=VECTOR('',#369,1.0);
#367=DIRECTION('',(-0.8293883169737719,0,0.5586725513817676));
#368=DIRECTION('',(-1,0,0));
#369=DIRECTION('',(0.9249246497972686,0,-0.3801504862516949));
#370=FACE_SURFACE('',(#375),#371,.T.);
#371=PLANE('',#372);
#372=AXIS2_PLACEMENT_3D('',#40,#373,#374);
#373=DIRECTION('',(0,0,1));
#374=DIRECTION('',(1,0,0));
#375=FACE_BOUND('',#376,.T.);
#376=EDGE_LOOP('',(#377,#378,#379));
#377=ORIENTED_EDGE('',*,*,#380,.T.);
#378=ORIENTED_EDGE('',*,*,#381,.T.);
#379=ORIENTED_EDGE('',*,*,#382,.T.);
#380=EDGE_CURVE('',#41,#45,#383,.F.);
#381=EDGE_CURVE('',#45,#49,#384,.T.);
#382=EDGE_CURVE('',#49,#41,#385,.T.);
#383=LINE('',#40,#386);
#384=LINE('',#44,#387);
#385=LINE('',#48,#388);
#386=VECTOR('',#389,1.0);
#387=VECTOR('',#390,1.0);
#388=VECTOR('',#391,1.0);
#389=DIRECTION('',(1,0,0));
#390=DIRECTION('',(0,1,0));
#391=DIRECTION('',(-0.9468760093335724,-0.3215988540846008,0));
#392=FACE_SURFACE('',(#397),#393,.T.);
#393=PLANE('',#394);
#394=AXIS2_PLACEMENT_3D('',#40,#395,#396);
#395=DIRECTION('',(0,0,1));
#396=DIRECTION('',(0.9468760093335724,0.3215988540846008,0));
#397=FACE_BOUND('',#398,.T.);
#398=EDGE_LOOP('',(#399,#400,#401));
#399=ORIENTED_EDGE('',*,*,#402,.T.);
#400=ORIENTED_EDGE('',*,*,#403,.T.);
#401=ORIENTED_EDGE('',*,*,#404,.T.);
#402=EDGE_CURVE('',#41,#49,#405,.F.);
#403=EDGE_CURVE('',#49,#35,#406,.T.);
#404=EDGE_CURVE('',#35,#41,#407,.T.);
#405=LINE('',#40,#408);
#406=LINE('',#48,#409);
#407=LINE('',#34,#410);
#408=VECTOR('',#411,1.0);
#409=VECTOR('',#412,1.0);
#410=VECTOR('',#413,1.0);
#411=DIRECTION('',(0.9468760093335724,0.3215988540846008,0));
#412=DIRECTION('',(-1,0,0));
#413=DIRECTION('',(0,-1,0));
#414=FACE_SURFACE('',(#419),#415,.T.);
#415=PLANE('',#416);
#416=AXIS2_PLACEMENT_3D('',#58,#417,#418);
#417=DIRECTION('',(0,-0,-1));
#418=DIRECTION('',(0,-1,0));
#419=FACE_BOUND('',#420,.T.);
#420=EDGE_LOOP('',(#421,#422,#423));
#421=ORIENTED_EDGE('',*,*,#424,.T.);
#422=ORIENTED_EDGE('',*,*,#425,.T.);
#423=ORIENTED_EDGE('',*,*,#426,.T.);
#424=EDGE_CURVE('',#59,#61,#427,.F.);
#425=EDGE_CURVE('',#61,#39,#428,.T.);
#426=EDGE_CURVE('',#39,#59,#429,.T.);
#427=LINE('',#58,#430);
#428=LINE('',#60,#431);
#429=LINE('',#38,#432);
#430=VECTOR('',#433,1.0);
#431=VECTOR('',#434,1.0);
#432=VECTOR('',#435,1.0);
#433=DIRECTION('',(0,-1,0));
#434=DIRECTION('',(-0.4846236615292864,-0.8747227598993567,0));
#435=DIRECTION('',(0.010839628211822085,0.9999412495043044,0));
#436=FACE_SURFACE('',(#441),#437,.T.);
#437=PLANE('',#438);
#438=AXIS2_PLACEMENT_3D('',#58,#439,#440);
#439=DIRECTION('',(-0,0,-1));
#440=DIRECTION('',(-0.010839628211822085,-0.9999412495043044,0));
#441=FACE_BOUND('',#442,.T.);
#442=EDGE_LOOP('',(#443,#444,#445));
#443=ORIENTED_EDGE('',*,*,#446,.T.);
#444=ORIENTED_EDGE('',*,*,#447,.T.);
#445=ORIENTED_EDGE('',*,*,#448,.T.);
#446=EDGE_CURVE('',#59,#39,#449,.F.);
#447=EDGE_CURVE('',#39,#37,#450,.T.);
#448=EDGE_CURVE('',#37,#59,#451,.T.);
#449=LINE('',#58,#452);
#450=LINE('',#38,#453);
#451=LINE('',#36,#454);
#452=VECTOR('',#455,1.0);
#453=VECTOR('',#456,1.0);
#454=VECTOR('',#457,1.0);
#455=DIRECTION('',(-0.010839628211822085,-0.9999412495043044,0));
#456=DIRECTION('',(0,1,0));
#457=DIRECTION('',(0.4846229555497689,-0.8747231510336324,0));
#458=FACE_SURFACE('',(#463),#459,.T.);
#459=PLANE('',#460);
#460=AXIS2_PLACEMENT_3D('',#60,#461,#462);
#461=DIRECTION('',(0,0,-1));
#462=DIRECTION('',(1,0,0));
#463=FACE_BOUND('',#464,.T.);
#464=EDGE_LOOP('',(#465,#466,#467));
#465=ORIENTED_EDGE('',*,*,#468,.T.);
#466=ORIENTED_EDGE('',*,*,#469,.T.);
#467=ORIENTED_EDGE('',*,*,#470,.T.);
#468=EDGE_CURVE('',#61,#63,#471,.F.);
#469=EDGE_CURVE('',#63,#43,#472,.T.);
#470=EDGE_CURVE('',#43,#61,#473,.T.);
#471=LINE('',#60,#474);
#472=LINE('',#62,#475);
#473=LINE('',#42,#476);
#474=VECTOR('',#477,1.0);
#475=VECTOR('',#478,1.0);
#476=VECTOR('',#479,1.0);
#477=DIRECTION('',(1,0,0));
#478=DIRECTION('',(0.4846338555199086,-0.874717112033318,0));
#479=DIRECTION('',(-0.9999786045375602,0.006541442280870694,0));
#480=FACE_SURFACE('',(#485),#481,.T.);
#481=PLANE('',#482);
#482=AXIS2_PLACEMENT_3D('',#60,#483,#484);
#483=DIRECTION('',(0,-0,-1));
#484=DIRECTION('',(0.9999786045375602,-0.006541442280870694,0));
#485=FACE_BOUND('',#486,.T.);
#486=EDGE_LOOP('',(#487,#488,#489));
#487=ORIENTED_EDGE('',*,*,#490,.T.);
#488=ORIENTED_EDGE('',*,*,#491,.T.);
#489=ORIENTED_EDGE('',*,*,#492,.T.);
#490=EDGE_CURVE('',#61,#43,#493,.F.);
#491=EDGE_CURVE('',#43,#39,#494,.T.);
#492=EDGE_CURVE('',#39,#61,#495,.T.);
#493=LINE('',#60,#496);
#494=LINE('',#42,#497);
#495=LINE('',#38,#498);
#496=VECTOR('',#499,1.0);
#497=VECTOR('',#500,1.0);
#498=VECTOR('',#501,1.0);
#499=DIRECTION('',(0.9999786045375602,-0.006541442280870694,0));
#500=DIRECTION('',(-1,0,0));
#501=DIRECTION('',(0.4846236615292864,0.8747227598993567,0));
#502=FACE_SURFACE('',(#507),#503,.T.);
#503=PLANE('',#504);
#504=AXIS2_PLACEMENT_3D('',#62,#505,#506);
#505=DIRECTION('',(0,0,-1));
#506=DIRECTION('',(0,1,0));
#507=FACE_BOUND('',#508,.T.);
#508=EDGE_LOOP('',(#509,#510,#511));
#509=ORIENTED_EDGE('',*,*,#512,.T.);
#510=ORIENTED_EDGE('',*,*,#513,.T.);
#511=ORIENTED_EDGE('',*,*,#514,.T.);
#512=EDGE_CURVE('',#63,#65,#515,.F.);
#513=EDGE_CURVE('',#65,#47,#516,.T.);
#514=EDGE_CURVE('',#47,#63,#517,.T.);
#515=LINE('',#62,#518);
#516=LINE('',#64,#519);
#517=LINE('',#46,#520);
#518=VECTOR('',#521,1.0);
#519=VECTOR('',#522,1.0);
#520=VECTOR('',#523,1.0);
#521=DIRECTION('',(0,1,0));
#522=DIRECTION('',(0.48463314953465775,0.8747175031815232,0));
#523=DIRECTION('',(-0.010839925773789864,-0.9999412462786095,0));
#524=FACE_SURFACE('',(#529),#525,.T.);
#525=PLANE('',#526);
#526=AXIS2_PLACEMENT_3D('',#62,#527,#528);
#527=DIRECTION('',(0,0,-1));
#528=DIRECTION('',(0.010839925773789864,0.9999412462786095,0));
#529=FACE_BOUND('',#530,.T.);
#530=EDGE_LOOP('',(#531,#532,#533));
#531=ORIENTED_EDGE('',*,*,#534,.T.);
#532=ORIENTED_EDGE('',*,*,#535,.T.);
#533=ORIENTED_EDGE('',*,*,#536,.T.);
#534=EDGE_CURVE('',#63,#47,#537,.F.);
#535=EDGE_CURVE('',#47,#43,#538,.T.);
#536=EDGE_CURVE('',#43,#63,#539,.T.);
#537=LINE('',#62,#540);
#538=LINE('',#46,#541);
#539=LINE('',#42,#542);
#540=VECTOR('',#543,1.0);
#541=VECTOR('',#544,1.0);
#542=VECTOR('',#545,1.0);
#543=DIRECTION('',(0.010839925773789864,0.9999412462786095,0));
#544=DIRECTION('',(0,-1,0));
#545=DIRECTION('',(-0.4846338555199086,0.874717112033318,0));
#546=FACE_SURFACE('',(#551),#547,.T.);
#547=PLANE('',#548);
#548=AXIS2_PLACEMENT_3D('',#58,#549,#550);
#549=DIRECTION('',(0,0,-1));
#550=DIRECTION('',(-0.4846229555497689,0.8747231510336324,0));
#551=FACE_BOUND('',#552,.T.);
#552=EDGE_LOOP('',(#553,#554,#555));
#553=ORIENTED_EDGE('',*,*,#556,.T.);
#554=ORIENTED_EDGE('',*,*,#557,.T.);
#555=ORIENTED_EDGE('',*,*,#558,.T.);
#556=EDGE_CURVE('',#59,#37,#559,.F.);
#557=EDGE_CURVE('',#37,#53,#560,.T.);
#558=EDGE_CURVE('',#53,#59,#561,.T.);
#559=LINE('',#58,#562);
#560=LINE('',#36,#563);
#561=LINE('',#52,#564);
#562=VECTOR('',#565,1.0);
#563=VECTOR('',#566,1.0);
#564=VECTOR('',#567,1.0);
#565=DIRECTION('',(-0.4846229555497689,0.8747231510336324,0));
#566=DIRECTION('',(1,0,0));
#567=DIRECTION('',(-0.9999748580365571,-0.007091071482336311,0));
#568=FACE_SURFACE('',(#573),#569,.T.);
#569=PLANE('',#570);
#570=AXIS2_PLACEMENT_3D('',#58,#571,#572);
#571=DIRECTION('',(0,0,-1));
#572=DIRECTION('',(0.9999748580365571,0.007091071482336311,0));
#573=FACE_BOUND('',#574,.T.);
#574=EDGE_LOOP('',(#575,#576,#577));
#575=ORIENTED_EDGE('',*,*,#578,.T.);
#576=ORIENTED_EDGE('',*,*,#579,.T.);
#577=ORIENTED_EDGE('',*,*,#580,.T.);
#578=EDGE_CURVE('',#59,#53,#581,.F.);
#579=EDGE_CURVE('',#53,#67,#582,.T.);
#580=EDGE_CURVE('',#67,#59,#583,.T.);
#581=LINE('',#58,#584);
#582=LINE('',#52,#585);
#583=LINE('',#66,#586);
#584=VECTOR('',#587,1.0);
#585=VECTOR('',#588,1.0);
#586=VECTOR('',#589,1.0);
#587=DIRECTION('',(0.9999748580365571,0.007091071482336311,0));
#588=DIRECTION('',(0,-1,0));
#589=DIRECTION('',(-1,0,0));
#590=FACE_SURFACE('',(#595),#591,.T.);
#591=PLANE('',#592);
#592=AXIS2_PLACEMENT_3D('',#46,#593,#594);
#593=DIRECTION('',(0,0,-1));
#594=DIRECTION('',(-0.48463314953465775,-0.8747175031815232,0));
#595=FACE_BOUND('',#596,.T.);
#596=EDGE_LOOP('',(#597,#598,#599));
#597=ORIENTED_EDGE('',*,*,#600,.T.);
#598=ORIENTED_EDGE('',*,*,#601,.T.);
#599=ORIENTED_EDGE('',*,*,#602,.T.);
#600=EDGE_CURVE('',#47,#65,#603,.F.);
#601=EDGE_CURVE('',#65,#69,#604,.T.);
#602=EDGE_CURVE('',#69,#47,#605,.T.);
#603=LINE('',#46,#606);
#604=LINE('',#64,#607);
#605=LINE('',#68,#608);
#606=VECTOR('',#609,1.0);
#607=VECTOR('',#610,1.0);
#608=VECTOR('',#611,1.0);
#609=DIRECTION('',(-0.48463314953465775,-0.8747175031815232,0));
#610=DIRECTION('',(-1,0,0));
#611=DIRECTION('',(0.9905697005185722,0.13700973839310188,0));
#612=FACE_SURFACE('',(#617),#613,.T.);
#613=PLANE('',#614);
#614=AXIS2_PLACEMENT_3D('',#46,#615,#616);
#615=DIRECTION('',(-0,0,-1));
#616=DIRECTION('',(-0.9905697005185722,-0.13700973839310188,0));
#617=FACE_BOUND('',#618,.T.);
#618=EDGE_LOOP('',(#619,#620,#621));
#619=ORIENTED_EDGE('',*,*,#622,.T.);
#620=ORIENTED_EDGE('',*,*,#623,.T.);
#621=ORIENTED_EDGE('',*,*,#624,.T.);
#622=EDGE_CURVE('',#47,#69,#625,.F.);
#623=EDGE_CURVE('',#69,#55,#626,.T.);
#624=EDGE_CURVE('',#55,#47,#627,.T.);
#625=LINE('',#46,#628);
#626=LINE('',#68,#629);
#627=LINE('',#54,#630);
#628=VECTOR('',#631,1.0);
#629=VECTOR('',#632,1.0);
#630=VECTOR('',#633,1.0);
#631=DIRECTION('',(-0.9905697005185722,-0.13700973839310188,0));
#632=DIRECTION('',(0,1,0));
#633=DIRECTION('',(1,0,0));
#634=FACE_SURFACE('',(#639),#635,.T.);
#635=PLANE('',#636);
#636=AXIS2_PLACEMENT_3D('',#64,#637,#638);
#637=DIRECTION('',(1,0,0));
#638=DIRECTION('',(0,-1,0));
#639=FACE_BOUND('',#640,.T.);
#640=EDGE_LOOP('',(#641,#642,#643));
#641=ORIENTED_EDGE('',*,*,#644,.T.);
#642=ORIENTED_EDGE('',*,*,#645,.T.);
#643=ORIENTED_EDGE('',*,*,#646,.T.);
#644=EDGE_CURVE('',#65,#63,#647,.F.);
#645=EDGE_CURVE('',#63,#71,#648,.T.);
#646=EDGE_CURVE('',#71,#65,#649,.T.);
#647=LINE('',#64,#650);
#648=LINE('',#62,#651);
#649=LINE('',#70,#652);
#650=VECTOR('',#653,1.0);
#651=VECTOR('',#654,1.0);
#652=VECTOR('',#655,1.0);
#653=DIRECTION('',(0,-1,0));
#654=DIRECTION('',(0,0,-1));
#655=DIRECTION('',(0,0.9976754877145656,0.06814412090197859));
#656=FACE_SURFACE('',(#661),#657,.T.);
#657=PLANE('',#658);
#658=AXIS2_PLACEMENT_3D('',#64,#659,#660);
#659=DIRECTION('',(1,0,0));
#660=DIRECTION('',(0,-0.9976754877145656,-0.06814412090197859));
#661=FACE_BOUND('',#662,.T.);
#662=EDGE_LOOP('',(#663,#664,#665));
#663=ORIENTED_EDGE('',*,*,#666,.T.);
#664=ORIENTED_EDGE('',*,*,#667,.T.);
#665=ORIENTED_EDGE('',*,*,#668,.T.);
#666=EDGE_CURVE('',#65,#71,#669,.F.);
#667=EDGE_CURVE('',#71,#73,#670,.T.);
#668=EDGE_CURVE('',#73,#65,#671,.T.);
#669=LINE('',#64,#672);
#670=LINE('',#70,#673);
#671=LINE('',#72,#674);
#672=VECTOR('',#675,1.0);
#673=VECTOR('',#676,1.0);
#674=VECTOR('',#677,1.0);
#675=DIRECTION('',(0,-0.9976754877145656,-0.06814412090197859));
#676=DIRECTION('',(0,1,0));
#677=DIRECTION('',(0,0,1));
#678=FACE_SURFACE('',(#683),#679,.T.);
#679=PLANE('',#680);
#680=AXIS2_PLACEMENT_3D('',#74,#681,#682);
#681=DIRECTION('',(-0,1,0));
#682=DIRECTION('',(1,0,0));
#683=FACE_BOUND('',#684,.T.);
#684=EDGE_LOOP('',(#685,#686,#687));
#685=ORIENTED_EDGE('',*,*,#688,.T.);
#686=ORIENTED_EDGE('',*,*,#689,.T.);
#687=ORIENTED_EDGE('',*,*,#690,.T.);
#688=EDGE_CURVE('',#75,#73,#691,.F.);
#689=EDGE_CURVE('',#73,#77,#692,.T.);
#690=EDGE_CURVE('',#77,#75,#693,.T.);
#691=LINE('',#74,#694);
#692=LINE('',#72,#695);
#693=LINE('',#76,#696);
#694=VECTOR('',#697,1.0);
#695=VECTOR('',#698,1.0);
#696=VECTOR('',#699,1.0);
#697=DIRECTION('',(1,0,0));
#698=DIRECTION('',(0,0,-1));
#699=DIRECTION('',(-0.9999972049339841,0,0.002364344352965851));
#700=FACE_SURFACE('',(#705),#701,.T.);
#701=PLANE('',#702);
#702=AXIS2_PLACEMENT_3D('',#74,#703,#704);
#703=DIRECTION('',(0,1,0));
#704=DIRECTION('',(0.9999972049339841,0,-0.002364344352965851));
#705=FACE_BOUND('',#706,.T.);
#706=EDGE_LOOP('',(#707,#708,#709));
#707=ORIENTED_EDGE('',*,*,#710,.T.);
#708=ORIENTED_EDGE('',*,*,#711,.T.);
#709=ORIENTED_EDGE('',*,*,#712,.T.);
#710=EDGE_CURVE('',#75,#77,#713,.F.);
#711=EDGE_CURVE('',#77,#79,#714,.T.);
#712=EDGE_CURVE('',#79,#75,#715,.T.);
#713=LINE('',#74,#716);
#714=LINE('',#76,#717);
#715=LINE('',#78,#718);
#716=VECTOR('',#719,1.0);
#717=VECTOR('',#720,1.0);
#718=VECTOR('',#721,1.0);
#719=DIRECTION('',(0.9999972049339841,0,-0.002364344352965851));
#720=DIRECTION('',(-1,0,0));
#721=DIRECTION('',(0,0,1));
#722=FACE_SURFACE('',(#727),#723,.T.);
#723=PLANE('',#724);
#724=AXIS2_PLACEMENT_3D('',#60,#725,#726);
#725=DIRECTION('',(-1,0,0));
#726=DIRECTION('',(0,1,0));
#727=FACE_BOUND('',#728,.T.);
#728=EDGE_LOOP('',(#729,#730,#731));
#729=ORIENTED_EDGE('',*,*,#732,.T.);
#730=ORIENTED_EDGE('',*,*,#733,.T.);
#731=ORIENTED_EDGE('',*,*,#734,.T.);
#732=EDGE_CURVE('',#61,#59,#735,.F.);
#733=EDGE_CURVE('',#59,#75,#736,.T.);
#734=EDGE_CURVE('',#75,#61,#737,.T.);
#735=LINE('',#60,#738);
#736=LINE('',#58,#739);
#737=LINE('',#74,#740);
#738=VECTOR('',#741,1.0);
#739=VECTOR('',#742,1.0);
#740=VECTOR('',#743,1.0);
#741=DIRECTION('',(0,1,0));
#742=DIRECTION('',(0,0,-1));
#743=DIRECTION('',(0,-0.9976754877145656,0.06814412090197859));
#744=FACE_SURFACE('',(#749),#745,.T.);
#745=PLANE('',#746);
#746=AXIS2_PLACEMENT_3D('',#60,#747,#748);
#747=DIRECTION('',(-1,0,0));
#748=DIRECTION('',(0,0.9976754877145656,-0.06814412090197859));
#749=FACE_BOUND('',#750,.T.);
#750=EDGE_LOOP('',(#751,#752,#753));
#751=ORIENTED_EDGE('',*,*,#754,.T.);
#752=ORIENTED_EDGE('',*,*,#755,.T.);
#753=ORIENTED_EDGE('',*,*,#756,.T.);
#754=EDGE_CURVE('',#61,#75,#757,.F.);
#755=EDGE_CURVE('',#75,#81,#758,.T.);
#756=EDGE_CURVE('',#81,#61,#759,.T.);
#757=LINE('',#60,#760);
#758=LINE('',#74,#761);
#759=LINE('',#80,#762);
#760=VECTOR('',#763,1.0);
#761=VECTOR('',#764,1.0);
#762=VECTOR('',#765,1.0);
#763=DIRECTION('',(0,0.9976754877145656,-0.06814412090197859));
#764=DIRECTION('',(0,-1,0));
#765=DIRECTION('',(0,0,1));
#766=FACE_SURFACE('',(#771),#767,.T.);
#767=PLANE('',#768);
#768=AXIS2_PLACEMENT_3D('',#68,#769,#770);
#769=DIRECTION('',(-0,1,0));
#770=DIRECTION('',(1,0,0));
#771=FACE_BOUND('',#772,.T.);
#772=EDGE_LOOP('',(#773,#774,#775));
#773=ORIENTED_EDGE('',*,*,#776,.T.);
#774=ORIENTED_EDGE('',*,*,#777,.T.);
#775=ORIENTED_EDGE('',*,*,#778,.T.);
#776=EDGE_CURVE('',#69,#65,#779,.F.);
#777=EDGE_CURVE('',#65,#73,#780,.T.);
#778=EDGE_CURVE('',#73,#69,#781,.T.);
#779=LINE('',#68,#782);
#780=LINE('',#64,#783);
#781=LINE('',#72,#784);
#782=VECTOR('',#785,1.0);
#783=VECTOR('',#786,1.0);
#784=VECTOR('',#787,1.0);
#785=DIRECTION('',(1,0,0));
#786=DIRECTION('',(0,0,-1));
#787=DIRECTION('',(-0.8898698609427734,0,0.45621445679163786));
#788=FACE_SURFACE('',(#793),#789,.T.);
#789=PLANE('',#790);
#790=AXIS2_PLACEMENT_3D('',#72,#791,#792);
#791=DIRECTION('',(0,1,0));
#792=DIRECTION('',(-1,0,0));
#793=FACE_BOUND('',#794,.T.);
#794=EDGE_LOOP('',(#795,#796,#797));
#795=ORIENTED_EDGE('',*,*,#798,.T.);
#796=ORIENTED_EDGE('',*,*,#799,.T.);
#797=ORIENTED_EDGE('',*,*,#800,.T.);
#798=EDGE_CURVE('',#73,#75,#801,.F.);
#799=EDGE_CURVE('',#75,#59,#802,.T.);
#800=EDGE_CURVE('',#59,#73,#803,.T.);
#801=LINE('',#72,#804);
#802=LINE('',#74,#805);
#803=LINE('',#58,#806);
#804=VECTOR('',#807,1.0);
#805=VECTOR('',#808,1.0);
#806=VECTOR('',#809,1.0);
#807=DIRECTION('',(-1,0,0));
#808=DIRECTION('',(0,0,1));
#809=DIRECTION('',(0.9997476354753972,0,-0.022464758208181383));
#810=FACE_SURFACE('',(#815),#811,.T.);
#811=PLANE('',#812);
#812=AXIS2_PLACEMENT_3D('',#58,#813,#814);
#813=DIRECTION('',(-0,1,0));
#814=DIRECTION('',(1,0,0));
#815=FACE_BOUND('',#816,.T.);
#816=EDGE_LOOP('',(#817,#818,#819));
#817=ORIENTED_EDGE('',*,*,#820,.T.);
#818=ORIENTED_EDGE('',*,*,#821,.T.);
#819=ORIENTED_EDGE('',*,*,#822,.T.);
#820=EDGE_CURVE('',#59,#67,#823,.F.);
#821=EDGE_CURVE('',#67,#83,#824,.T.);
#822=EDGE_CURVE('',#83,#59,#825,.T.);
#823=LINE('',#58,#826);
#824=LINE('',#66,#827);
#825=LINE('',#82,#828);
#826=VECTOR('',#829,1.0);
#827=VECTOR('',#830,1.0);
#828=VECTOR('',#831,1.0);
#829=DIRECTION('',(1,0,0));
#830=DIRECTION('',(0,0,-1));
#831=DIRECTION('',(-0.9999568757745559,0,0.009286904284508292));
#832=FACE_SURFACE('',(#837),#833,.T.);
#833=PLANE('',#834);
#834=AXIS2_PLACEMENT_3D('',#84,#835,#836);
#835=DIRECTION('',(-0,1,0));
#836=DIRECTION('',(0,0,1));
#837=FACE_BOUND('',#838,.T.);
#838=EDGE_LOOP('',(#839,#840,#841));
#839=ORIENTED_EDGE('',*,*,#842,.T.);
#840=ORIENTED_EDGE('',*,*,#843,.T.);
#841=ORIENTED_EDGE('',*,*,#844,.T.);
#842=EDGE_CURVE('',#85,#69,#845,.F.);
#843=EDGE_CURVE('',#69,#73,#846,.T.);
#844=EDGE_CURVE('',#73,#85,#847,.T.);
#845=LINE('',#84,#848);
#846=LINE('',#68,#849);
#847=LINE('',#72,#850);
#848=VECTOR('',#851,1.0);
#849=VECTOR('',#852,1.0);
#850=VECTOR('',#853,1.0);
#851=DIRECTION('',(0,0,1));
#852=DIRECTION('',(0.8898698609427734,0,-0.45621445679163786));
#853=DIRECTION('',(-0.9533896684225982,0,0.30174184354353));
#854=FACE_SURFACE('',(#859),#855,.T.);
#855=PLANE('',#856);
#856=AXIS2_PLACEMENT_3D('',#72,#857,#858);
#857=DIRECTION('',(0,1,0));
#858=DIRECTION('',(-0.9997476354753972,0,0.022464758208181383));
#859=FACE_BOUND('',#860,.T.);
#860=EDGE_LOOP('',(#861,#862,#863));
#861=ORIENTED_EDGE('',*,*,#864,.T.);
#862=ORIENTED_EDGE('',*,*,#865,.T.);
#863=ORIENTED_EDGE('',*,*,#866,.T.);
#864=EDGE_CURVE('',#73,#59,#867,.F.);
#865=EDGE_CURVE('',#59,#83,#868,.T.);
#866=EDGE_CURVE('',#83,#73,#869,.T.);
#867=LINE('',#72,#870);
#868=LINE('',#58,#871);
#869=LINE('',#82,#872);
#870=VECTOR('',#873,1.0);
#871=VECTOR('',#874,1.0);
#872=VECTOR('',#875,1.0);
#873=DIRECTION('',(-0.9997476354753972,0,0.022464758208181383));
#874=DIRECTION('',(0.9999568757745559,0,-0.009286904284508292));
#875=DIRECTION('',(0.9829499982846682,0,-0.18387305640623594));
#876=FACE_SURFACE('',(#881),#877,.T.);
#877=PLANE('',#878);
#878=AXIS2_PLACEMENT_3D('',#72,#879,#880);
#879=DIRECTION('',(0,1,0));
#880=DIRECTION('',(-0.9829499982846682,0,0.18387305640623594));
#881=FACE_BOUND('',#882,.T.);
#882=EDGE_LOOP('',(#883,#884,#885));
#883=ORIENTED_EDGE('',*,*,#886,.T.);
#884=ORIENTED_EDGE('',*,*,#887,.T.);
#885=ORIENTED_EDGE('',*,*,#888,.T.);
#886=EDGE_CURVE('',#73,#83,#889,.F.);
#887=EDGE_CURVE('',#83,#85,#890,.T.);
#888=EDGE_CURVE('',#85,#73,#891,.T.);
#889=LINE('',#72,#892);
#890=LINE('',#82,#893);
#891=LINE('',#84,#894);
#892=VECTOR('',#895,1.0);
#893=VECTOR('',#896,1.0);
#894=VECTOR('',#897,1.0);
#895=DIRECTION('',(-0.9829499982846682,0,0.18387305640623594));
#896=DIRECTION('',(1,0,0));
#897=DIRECTION('',(0.9533896684225982,0,-0.30174184354353));
#898=FACE_SURFACE('',(#903),#899,.T.);
#899=PLANE('',#900);
#900=AXIS2_PLACEMENT_3D('',#62,#901,#902);
#901=DIRECTION('',(-0,-1,0));
#902=DIRECTION('',(-1,0,0));
#903=FACE_BOUND('',#904,.T.);
#904=EDGE_LOOP('',(#905,#906,#907));
#905=ORIENTED_EDGE('',*,*,#908,.T.);
#906=ORIENTED_EDGE('',*,*,#909,.T.);
#907=ORIENTED_EDGE('',*,*,#910,.T.);
#908=EDGE_CURVE('',#63,#61,#911,.F.);
#909=EDGE_CURVE('',#61,#81,#912,.T.);
#910=EDGE_CURVE('',#81,#63,#913,.T.);
#911=LINE('',#62,#914);
#912=LINE('',#60,#915);
#913=LINE('',#80,#916);
#914=VECTOR('',#917,1.0);
#915=VECTOR('',#918,1.0);
#916=VECTOR('',#919,1.0);
#917=DIRECTION('',(-1,0,0));
#918=DIRECTION('',(0,0,-1));
#919=DIRECTION('',(0.9997476354753972,0,0.022464758208181383));
#920=FACE_SURFACE('',(#925),#921,.T.);
#921=PLANE('',#922);
#922=AXIS2_PLACEMENT_3D('',#62,#923,#924);
#923=DIRECTION('',(0,-1,-0));
#924=DIRECTION('',(-0.9997476354753972,0,-0.022464758208181383));
#925=FACE_BOUND('',#926,.T.);
#926=EDGE_LOOP('',(#927,#928,#929));
#927=ORIENTED_EDGE('',*,*,#930,.T.);
#928=ORIENTED_EDGE('',*,*,#931,.T.);
#929=ORIENTED_EDGE('',*,*,#932,.T.);
#930=EDGE_CURVE('',#63,#81,#933,.F.);
#931=EDGE_CURVE('',#81,#71,#934,.T.);
#932=EDGE_CURVE('',#71,#63,#935,.T.);
#933=LINE('',#62,#936);
#934=LINE('',#80,#937);
#935=LINE('',#70,#938);
#936=VECTOR('',#939,1.0);
#937=VECTOR('',#940,1.0);
#938=VECTOR('',#941,1.0);
#939=DIRECTION('',(-0.9997476354753972,0,-0.022464758208181383));
#940=DIRECTION('',(1,0,0));
#941=DIRECTION('',(0,0,1));
#942=FACE_SURFACE('',(#947),#943,.T.);
#943=PLANE('',#944);
#944=AXIS2_PLACEMENT_3D('',#86,#945,#946);
#945=DIRECTION('',(1,0,0));
#946=DIRECTION('',(0,-1,0));
#947=FACE_BOUND('',#948,.T.);
#948=EDGE_LOOP('',(#949,#950,#951));
#949=ORIENTED_EDGE('',*,*,#952,.T.);
#950=ORIENTED_EDGE('',*,*,#953,.T.);
#951=ORIENTED_EDGE('',*,*,#954,.T.);
#952=EDGE_CURVE('',#87,#89,#955,.F.);
#953=EDGE_CURVE('',#89,#91,#956,.T.);
#954=EDGE_CURVE('',#91,#87,#957,.T.);
#955=LINE('',#86,#958);
#956=LINE('',#88,#959);
#957=LINE('',#90,#960);
#958=VECTOR('',#961,1.0);
#959=VECTOR('',#962,1.0);
#960=VECTOR('',#963,1.0);
#961=DIRECTION('',(0,-1,0));
#962=DIRECTION('',(0,0,-1));
#963=DIRECTION('',(0,0.9996739795945124,0.0255330084727677));
#964=FACE_SURFACE('',(#969),#965,.T.);
#965=PLANE('',#966);
#966=AXIS2_PLACEMENT_3D('',#86,#967,#968);
#967=DIRECTION('',(1,0,0));
#968=DIRECTION('',(0,-0.9996739795945124,-0.0255330084727677));
#969=FACE_BOUND('',#970,.T.);
#970=EDGE_LOOP('',(#971,#972,#973));
#971=ORIENTED_EDGE('',*,*,#974,.T.);
#972=ORIENTED_EDGE('',*,*,#975,.T.);
#973=ORIENTED_EDGE('',*,*,#976,.T.);
#974=EDGE_CURVE('',#87,#91,#977,.F.);
#975=EDGE_CURVE('',#91,#93,#978,.T.);
#976=EDGE_CURVE('',#93,#87,#979,.T.);
#977=LINE('',#86,#980);
#978=LINE('',#90,#981);
#979=LINE('',#92,#982);
#980=VECTOR('',#983,1.0);
#981=VECTOR('',#984,1.0);
#982=VECTOR('',#985,1.0);
#983=DIRECTION('',(0,-0.9996739795945124,-0.0255330084727677));
#984=DIRECTION('',(0,1,0));
#985=DIRECTION('',(0,0,1));
#986=FACE_SURFACE('',(#991),#987,.T.);
#987=PLANE('',#988);
#988=AXIS2_PLACEMENT_3D('',#70,#989,#990);
#989=DIRECTION('',(-0,-1,0));
#990=DIRECTION('',(-1,0,0));
#991=FACE_BOUND('',#992,.T.);
#992=EDGE_LOOP('',(#993,#994,#995));
#993=ORIENTED_EDGE('',*,*,#996,.T.);
#994=ORIENTED_EDGE('',*,*,#997,.T.);
#995=ORIENTED_EDGE('',*,*,#998,.T.);
#996=EDGE_CURVE('',#71,#81,#999,.F.);
#997=EDGE_CURVE('',#81,#95,#1000,.T.);
#998=EDGE_CURVE('',#95,#71,#1001,.T.);
#999=LINE('',#70,#1002);
#1000=LINE('',#80,#1003);
#1001=LINE('',#94,#1004);
#1002=VECTOR('',#1005,1.0);
#1003=VECTOR('',#1006,1.0);
#1004=VECTOR('',#1007,1.0);
#1005=DIRECTION('',(-1,0,0));
#1006=DIRECTION('',(0,0,-1));
#1007=DIRECTION('',(0.9999972049339841,0,0.002364344352965851));
#1008=FACE_SURFACE('',(#1013),#1009,.T.);
#1009=PLANE('',#1010);
#1010=AXIS2_PLACEMENT_3D('',#70,#1011,#1012);
#1011=DIRECTION('',(0,-1,-0));
#1012=DIRECTION('',(-0.9999972049339841,0,-0.002364344352965851));
#1013=FACE_BOUND('',#1014,.T.);
#1014=EDGE_LOOP('',(#1015,#1016,#1017));
#1015=ORIENTED_EDGE('',*,*,#1018,.T.);
#1016=ORIENTED_EDGE('',*,*,#1019,.T.);
#1017=ORIENTED_EDGE('',*,*,#1020,.T.);
#1018=EDGE_CURVE('',#71,#95,#1021,.F.);
#1019=EDGE_CURVE('',#95,#97,#1022,.T.);
#1020=EDGE_CURVE('',#97,#71,#1023,.T.);
#1021=LINE('',#70,#1024);
#1022=LINE('',#94,#1025);
#1023=LINE('',#96,#1026);
#1024=VECTOR('',#1027,1.0);
#1025=VECTOR('',#1028,1.0);
#1026=VECTOR('',#1029,1.0);
#1027=DIRECTION('',(-0.9999972049339841,0,-0.002364344352965851));
#1028=DIRECTION('',(1,0,0));
#1029=DIRECTION('',(0,0,1));
#1030=FACE_SURFACE('',(#1035),#1031,.T.);
#1031=PLANE('',#1032);
#1032=AXIS2_PLACEMENT_3D('',#72,#1033,#1034);
#1033=DIRECTION('',(1,0,0));
#1034=DIRECTION('',(0,-1,0));
#1035=FACE_BOUND('',#1036,.T.);
#1036=EDGE_LOOP('',(#1037,#1038,#1039));
#1037=ORIENTED_EDGE('',*,*,#1040,.T.);
#1038=ORIENTED_EDGE('',*,*,#1041,.T.);
#1039=ORIENTED_EDGE('',*,*,#1042,.T.);
#1040=EDGE_CURVE('',#73,#71,#1043,.F.);
#1041=EDGE_CURVE('',#71,#97,#1044,.T.);
#1042=EDGE_CURVE('',#97,#73,#1045,.T.);
#1043=LINE('',#72,#1046);
#1044=LINE('',#70,#1047);
#1045=LINE('',#96,#1048);
#1046=VECTOR('',#1049,1.0);
#1047=VECTOR('',#1050,1.0);
#1048=VECTOR('',#1051,1.0);
#1049=DIRECTION('',(0,-1,0));
#1050=DIRECTION('',(0,0,-1));
#1051=DIRECTION('',(0,0.9999741754641914,0.007186682455106952));
#1052=FACE_SURFACE('',(#1057),#1053,.T.);
#1053=PLANE('',#1054);
#1054=AXIS2_PLACEMENT_3D('',#72,#1055,#1056);
#1055=DIRECTION('',(1,0,0));
#1056=DIRECTION('',(0,-0.9999741754641914,-0.007186682455106952));
#1057=FACE_BOUND('',#1058,.T.);
#1058=EDGE_LOOP('',(#1059,#1060,#1061));
#1059=ORIENTED_EDGE('',*,*,#1062,.T.);
#1060=ORIENTED_EDGE('',*,*,#1063,.T.);
#1061=ORIENTED_EDGE('',*,*,#1064,.T.);
#1062=EDGE_CURVE('',#73,#97,#1065,.F.);
#1063=EDGE_CURVE('',#97,#77,#1066,.T.);
#1064=EDGE_CURVE('',#77,#73,#1067,.T.);
#1065=LINE('',#72,#1068);
#1066=LINE('',#96,#1069);
#1067=LINE('',#76,#1070);
#1068=VECTOR('',#1071,1.0);
#1069=VECTOR('',#1072,1.0);
#1070=VECTOR('',#1073,1.0);
#1071=DIRECTION('',(0,-0.9999741754641914,-0.007186682455106952));
#1072=DIRECTION('',(0,1,0));
#1073=DIRECTION('',(0,0,1));
#1074=FACE_SURFACE('',(#1079),#1075,.T.);
#1075=PLANE('',#1076);
#1076=AXIS2_PLACEMENT_3D('',#80,#1077,#1078);
#1077=DIRECTION('',(-1,0,0));
#1078=DIRECTION('',(0,1,0));
#1079=FACE_BOUND('',#1080,.T.);
#1080=EDGE_LOOP('',(#1081,#1082,#1083));
#1081=ORIENTED_EDGE('',*,*,#1084,.T.);
#1082=ORIENTED_EDGE('',*,*,#1085,.T.);
#1083=ORIENTED_EDGE('',*,*,#1086,.T.);
#1084=EDGE_CURVE('',#81,#75,#1087,.F.);
#1085=EDGE_CURVE('',#75,#79,#1088,.T.);
#1086=EDGE_CURVE('',#79,#81,#1089,.T.);
#1087=LINE('',#80,#1090);
#1088=LINE('',#74,#1091);
#1089=LINE('',#78,#1092);
#1090=VECTOR('',#1093,1.0);
#1091=VECTOR('',#1094,1.0);
#1092=VECTOR('',#1095,1.0);
#1093=DIRECTION('',(0,1,0));
#1094=DIRECTION('',(0,0,-1));
#1095=DIRECTION('',(0,-0.9999741754641914,0.007186682455106952));
#1096=FACE_SURFACE('',(#1101),#1097,.T.);
#1097=PLANE('',#1098);
#1098=AXIS2_PLACEMENT_3D('',#80,#1099,#1100);
#1099=DIRECTION('',(-1,0,0));
#1100=DIRECTION('',(0,0.9999741754641914,-0.007186682455106952));
#1101=FACE_BOUND('',#1102,.T.);
#1102=EDGE_LOOP('',(#1103,#1104,#1105));
#1103=ORIENTED_EDGE('',*,*,#1106,.T.);
#1104=ORIENTED_EDGE('',*,*,#1107,.T.);
#1105=ORIENTED_EDGE('',*,*,#1108,.T.);
#1106=EDGE_CURVE('',#81,#79,#1109,.F.);
#1107=EDGE_CURVE('',#79,#95,#1110,.T.);
#1108=EDGE_CURVE('',#95,#81,#1111,.T.);
#1109=LINE('',#80,#1112);
#1110=LINE('',#78,#1113);
#1111=LINE('',#94,#1114);
#1112=VECTOR('',#1115,1.0);
#1113=VECTOR('',#1116,1.0);
#1114=VECTOR('',#1117,1.0);
#1115=DIRECTION('',(0,0.9999741754641914,-0.007186682455106952));
#1116=DIRECTION('',(0,-1,0));
#1117=DIRECTION('',(0,0,1));
#1118=FACE_SURFACE('',(#1123),#1119,.T.);
#1119=PLANE('',#1120);
#1120=AXIS2_PLACEMENT_3D('',#98,#1121,#1122);
#1121=DIRECTION('',(0,-0,-1));
#1122=DIRECTION('',(0,-1,0));
#1123=FACE_BOUND('',#1124,.T.);
#1124=EDGE_LOOP('',(#1125,#1126,#1127));
#1125=ORIENTED_EDGE('',*,*,#1128,.T.);
#1126=ORIENTED_EDGE('',*,*,#1129,.T.);
#1127=ORIENTED_EDGE('',*,*,#1130,.T.);
#1128=EDGE_CURVE('',#99,#101,#1131,.F.);
#1129=EDGE_CURVE('',#101,#95,#1132,.T.);
#1130=EDGE_CURVE('',#95,#99,#1133,.T.);
#1131=LINE('',#98,#1134);
#1132=LINE('',#100,#1135);
#1133=LINE('',#94,#1136);
#1134=VECTOR('',#1137,1.0);
#1135=VECTOR('',#1138,1.0);
#1136=VECTOR('',#1139,1.0);
#1137=DIRECTION('',(0,-1,0));
#1138=DIRECTION('',(-0.9468765414372652,-0.3215972874198461,0));
#1139=DIRECTION('',(0.04894597419079273,0.998801427517259,0));
#1140=FACE_SURFACE('',(#1145),#1141,.T.);
#1141=PLANE('',#1142);
#1142=AXIS2_PLACEMENT_3D('',#98,#1143,#1144);
#1143=DIRECTION('',(-0,0,-1));
#1144=DIRECTION('',(-0.04894597419079273,-0.998801427517259,0));
#1145=FACE_BOUND('',#1146,.T.);
#1146=EDGE_LOOP('',(#1147,#1148,#1149));
#1147=ORIENTED_EDGE('',*,*,#1150,.T.);
#1148=ORIENTED_EDGE('',*,*,#1151,.T.);
#1149=ORIENTED_EDGE('',*,*,#1152,.T.);
#1150=EDGE_CURVE('',#99,#95,#1153,.F.);
#1151=EDGE_CURVE('',#95,#79,#1154,.T.);
#1152=EDGE_CURVE('',#79,#99,#1155,.T.);
#1153=LINE('',#98,#1156);
#1154=LINE('',#94,#1157);
#1155=LINE('',#78,#1158);
#1156=VECTOR('',#1159,1.0);
#1157=VECTOR('',#1160,1.0);
#1158=VECTOR('',#1161,1.0);
#1159=DIRECTION('',(-0.04894597419079273,-0.998801427517259,0));
#1160=DIRECTION('',(0,1,0));
#1161=DIRECTION('',(0.9468758595900103,-0.3215992949707429,0));
#1162=FACE_SURFACE('',(#1167),#1163,.T.);
#1163=PLANE('',#1164);
#1164=AXIS2_PLACEMENT_3D('',#100,#1165,#1166);
#1165=DIRECTION('',(0,0,-1));
#1166=DIRECTION('',(1,0,0));
#1167=FACE_BOUND('',#1168,.T.);
#1168=EDGE_LOOP('',(#1169,#1170,#1171));
#1169=ORIENTED_EDGE('',*,*,#1172,.T.);
#1170=ORIENTED_EDGE('',*,*,#1173,.T.);
#1171=ORIENTED_EDGE('',*,*,#1174,.T.);
#1172=EDGE_CURVE('',#101,#89,#1175,.F.);
#1173=EDGE_CURVE('',#89,#97,#1176,.T.);
#1174=EDGE_CURVE('',#97,#101,#1177,.T.);
#1175=LINE('',#100,#1178);
#1176=LINE('',#88,#1179);
#1177=LINE('',#96,#1180);
#1178=VECTOR('',#1181,1.0);
#1179=VECTOR('',#1182,1.0);
#1180=VECTOR('',#1183,1.0);
#1181=DIRECTION('',(1,0,0));
#1182=DIRECTION('',(0.9468759238796397,-0.3215991056845135,0));
#1183=DIRECTION('',(-0.9999850250688105,0.005472626255304503,0));
#1184=FACE_SURFACE('',(#1189),#1185,.T.);
#1185=PLANE('',#1186);
#1186=AXIS2_PLACEMENT_3D('',#100,#1187,#1188);
#1187=DIRECTION('',(0,-0,-1));
#1188=DIRECTION('',(0.9999850250688105,-0.005472626255304503,0));
#1189=FACE_BOUND('',#1190,.T.);
#1190=EDGE_LOOP('',(#1191,#1192,#1193));
#1191=ORIENTED_EDGE('',*,*,#1194,.T.);
#1192=ORIENTED_EDGE('',*,*,#1195,.T.);
#1193=ORIENTED_EDGE('',*,*,#1196,.T.);
#1194=EDGE_CURVE('',#101,#97,#1197,.F.);
#1195=EDGE_CURVE('',#97,#95,#1198,.T.);
#1196=EDGE_CURVE('',#95,#101,#1199,.T.);
#1197=LINE('',#100,#1200);
#1198=LINE('',#96,#1201);
#1199=LINE('',#94,#1202);
#1200=VECTOR('',#1203,1.0);
#1201=VECTOR('',#1204,1.0);
#1202=VECTOR('',#1205,1.0);
#1203=DIRECTION('',(0.9999850250688105,-0.005472626255304503,0));
#1204=DIRECTION('',(-1,0,0));
#1205=DIRECTION('',(0.9468765414372652,0.3215972874198461,0));
#1206=FACE_SURFACE('',(#1211),#1207,.T.);
#1207=PLANE('',#1208);
#1208=AXIS2_PLACEMENT_3D('',#88,#1209,#1210);
#1209=DIRECTION('',(0,0,-1));
#1210=DIRECTION('',(0,1,0));
#1211=FACE_BOUND('',#1212,.T.);
#1212=EDGE_LOOP('',(#1213,#1214,#1215));
#1213=ORIENTED_EDGE('',*,*,#1216,.T.);
#1214=ORIENTED_EDGE('',*,*,#1217,.T.);
#1215=ORIENTED_EDGE('',*,*,#1218,.T.);
#1216=EDGE_CURVE('',#89,#87,#1219,.F.);
#1217=EDGE_CURVE('',#87,#77,#1220,.T.);
#1218=EDGE_CURVE('',#77,#89,#1221,.T.);
#1219=LINE('',#88,#1222);
#1220=LINE('',#86,#1223);
#1221=LINE('',#76,#1224);
#1222=VECTOR('',#1225,1.0);
#1223=VECTOR('',#1226,1.0);
#1224=VECTOR('',#1227,1.0);
#1225=DIRECTION('',(0,1,0));
#1226=DIRECTION('',(0.9468752420251194,0.32160111324414203,0));
#1227=DIRECTION('',(-0.04894566061724301,-0.9988014428837905,0));
#1228=FACE_SURFACE('',(#1233),#1229,.T.);
#1229=PLANE('',#1230);
#1230=AXIS2_PLACEMENT_3D('',#88,#1231,#1232);
#1231=DIRECTION('',(0,0,-1));
#1232=DIRECTION('',(0.04894566061724301,0.9988014428837905,0));
#1233=FACE_BOUND('',#1234,.T.);
#1234=EDGE_LOOP('',(#1235,#1236,#1237));
#1235=ORIENTED_EDGE('',*,*,#1238,.T.);
#1236=ORIENTED_EDGE('',*,*,#1239,.T.);
#1237=ORIENTED_EDGE('',*,*,#1240,.T.);
#1238=EDGE_CURVE('',#89,#77,#1241,.F.);
#1239=EDGE_CURVE('',#77,#97,#1242,.T.);
#1240=EDGE_CURVE('',#97,#89,#1243,.T.);
#1241=LINE('',#88,#1244);
#1242=LINE('',#76,#1245);
#1243=LINE('',#96,#1246);
#1244=VECTOR('',#1247,1.0);
#1245=VECTOR('',#1248,1.0);
#1246=VECTOR('',#1249,1.0);
#1247=DIRECTION('',(0.04894566061724301,0.9988014428837905,0));
#1248=DIRECTION('',(0,-1,0));
#1249=DIRECTION('',(-0.9468759238796397,0.3215991056845135,0));
#1250=FACE_SURFACE('',(#1255),#1251,.T.);
#1251=PLANE('',#1252);
#1252=AXIS2_PLACEMENT_3D('',#86,#1253,#1254);
#1253=DIRECTION('',(0,0,-1));
#1254=DIRECTION('',(-1,0,0));
#1255=FACE_BOUND('',#1256,.T.);
#1256=EDGE_LOOP('',(#1257,#1258,#1259));
#1257=ORIENTED_EDGE('',*,*,#1260,.T.);
#1258=ORIENTED_EDGE('',*,*,#1261,.T.);
#1259=ORIENTED_EDGE('',*,*,#1262,.T.);
#1260=EDGE_CURVE('',#87,#99,#1263,.F.);
#1261=EDGE_CURVE('',#99,#79,#1264,.T.);
#1262=EDGE_CURVE('',#79,#87,#1265,.T.);
#1263=LINE('',#86,#1266);
#1264=LINE('',#98,#1267);
#1265=LINE('',#78,#1268);
#1266=VECTOR('',#1269,1.0);
#1267=VECTOR('',#1270,1.0);
#1268=VECTOR('',#1271,1.0);
#1269=DIRECTION('',(-1,0,0));
#1270=DIRECTION('',(-0.9468758595900103,0.3215992949707429,0));
#1271=DIRECTION('',(0.9999850248633305,-0.005472663801499567,0));
#1272=FACE_SURFACE('',(#1277),#1273,.T.);
#1273=PLANE('',#1274);
#1274=AXIS2_PLACEMENT_3D('',#86,#1275,#1276);
#1275=DIRECTION('',(0,0,-1));
#1276=DIRECTION('',(-0.9999850248633305,0.005472663801499567,0));
#1277=FACE_BOUND('',#1278,.T.);
#1278=EDGE_LOOP('',(#1279,#1280,#1281));
#1279=ORIENTED_EDGE('',*,*,#1282,.T.);
#1280=ORIENTED_EDGE('',*,*,#1283,.T.);
#1281=ORIENTED_EDGE('',*,*,#1284,.T.);
#1282=EDGE_CURVE('',#87,#79,#1285,.F.);
#1283=EDGE_CURVE('',#79,#77,#1286,.T.);
#1284=EDGE_CURVE('',#77,#87,#1287,.T.);
#1285=LINE('',#86,#1288);
#1286=LINE('',#78,#1289);
#1287=LINE('',#76,#1290);
#1288=VECTOR('',#1291,1.0);
#1289=VECTOR('',#1292,1.0);
#1290=VECTOR('',#1293,1.0);
#1291=DIRECTION('',(-0.9999850248633305,0.005472663801499567,0));
#1292=DIRECTION('',(1,0,0));
#1293=DIRECTION('',(-0.9468752420251194,-0.32160111324414203,0));
#1294=FACE_SURFACE('',(#1299),#1295,.T.);
#1295=PLANE('',#1296);
#1296=AXIS2_PLACEMENT_3D('',#90,#1297,#1298);
#1297=DIRECTION('',(0,0,-1));
#1298=DIRECTION('',(-1,0,0));
#1299=FACE_BOUND('',#1300,.T.);
#1300=EDGE_LOOP('',(#1301,#1302,#1303));
#1301=ORIENTED_EDGE('',*,*,#1304,.T.);
#1302=ORIENTED_EDGE('',*,*,#1305,.T.);
#1303=ORIENTED_EDGE('',*,*,#1306,.T.);
#1304=EDGE_CURVE('',#91,#103,#1307,.F.);
#1305=EDGE_CURVE('',#103,#105,#1308,.T.);
#1306=EDGE_CURVE('',#105,#91,#1309,.T.);
#1307=LINE('',#90,#1310);
#1308=LINE('',#102,#1311);
#1309=LINE('',#104,#1312);
#1310=VECTOR('',#1313,1.0);
#1311=VECTOR('',#1314,1.0);
#1312=VECTOR('',#1315,1.0);
#1313=DIRECTION('',(-1,0,0));
#1314=DIRECTION('',(0,1,0));
#1315=DIRECTION('',(0.9500144197911953,-0.31220602522821117,0));
#1316=FACE_SURFACE('',(#1321),#1317,.T.);
#1317=PLANE('',#1318);
#1318=AXIS2_PLACEMENT_3D('',#90,#1319,#1320);
#1319=DIRECTION('',(0,0,-1));
#1320=DIRECTION('',(-0.9500144197911953,0.31220602522821117,0));
#1321=FACE_BOUND('',#1322,.T.);
#1322=EDGE_LOOP('',(#1323,#1324,#1325));
#1323=ORIENTED_EDGE('',*,*,#1326,.T.);
#1324=ORIENTED_EDGE('',*,*,#1327,.T.);
#1325=ORIENTED_EDGE('',*,*,#1328,.T.);
#1326=EDGE_CURVE('',#91,#105,#1329,.F.);
#1327=EDGE_CURVE('',#105,#93,#1330,.T.);
#1328=EDGE_CURVE('',#93,#91,#1331,.T.);
#1329=LINE('',#90,#1332);
#1330=LINE('',#104,#1333);
#1331=LINE('',#92,#1334);
#1332=VECTOR('',#1335,1.0);
#1333=VECTOR('',#1336,1.0);
#1334=VECTOR('',#1337,1.0);
#1335=DIRECTION('',(-0.9500144197911953,0.31220602522821117,0));
#1336=DIRECTION('',(1,0,0));
#1337=DIRECTION('',(0,-1,0));
#1338=FACE_SURFACE('',(#1343),#1339,.T.);
#1339=PLANE('',#1340);
#1340=AXIS2_PLACEMENT_3D('',#100,#1341,#1342);
#1341=DIRECTION('',(-1,0,0));
#1342=DIRECTION('',(0,1,0));
#1343=FACE_BOUND('',#1344,.T.);
#1344=EDGE_LOOP('',(#1345,#1346,#1347));
#1345=ORIENTED_EDGE('',*,*,#1348,.T.);
#1346=ORIENTED_EDGE('',*,*,#1349,.T.);
#1347=ORIENTED_EDGE('',*,*,#1350,.T.);
#1348=EDGE_CURVE('',#101,#99,#1351,.F.);
#1349=EDGE_CURVE('',#99,#105,#1352,.T.);
#1350=EDGE_CURVE('',#105,#101,#1353,.T.);
#1351=LINE('',#100,#1354);
#1352=LINE('',#98,#1355);
#1353=LINE('',#104,#1356);
#1354=VECTOR('',#1357,1.0);
#1355=VECTOR('',#1358,1.0);
#1356=VECTOR('',#1359,1.0);
#1357=DIRECTION('',(0,1,0));
#1358=DIRECTION('',(0,0,-1));
#1359=DIRECTION('',(0,-0.9996739795945124,0.0255330084727677));
#1360=FACE_SURFACE('',(#1365),#1361,.T.);
#1361=PLANE('',#1362);
#1362=AXIS2_PLACEMENT_3D('',#100,#1363,#1364);
#1363=DIRECTION('',(-1,0,0));
#1364=DIRECTION('',(0,0.9996739795945124,-0.0255330084727677));
#1365=FACE_BOUND('',#1366,.T.);
#1366=EDGE_LOOP('',(#1367,#1368,#1369));
#1367=ORIENTED_EDGE('',*,*,#1370,.T.);
#1368=ORIENTED_EDGE('',*,*,#1371,.T.);
#1369=ORIENTED_EDGE('',*,*,#1372,.T.);
#1370=EDGE_CURVE('',#101,#105,#1373,.F.);
#1371=EDGE_CURVE('',#105,#103,#1374,.T.);
#1372=EDGE_CURVE('',#103,#101,#1375,.T.);
#1373=LINE('',#100,#1376);
#1374=LINE('',#104,#1377);
#1375=LINE('',#102,#1378);
#1376=VECTOR('',#1379,1.0);
#1377=VECTOR('',#1380,1.0);
#1378=VECTOR('',#1381,1.0);
#1379=DIRECTION('',(0,0.9996739795945124,-0.0255330084727677));
#1380=DIRECTION('',(0,-1,0));
#1381=DIRECTION('',(0,0,1));
#1382=FACE_SURFACE('',(#1387),#1383,.T.);
#1383=PLANE('',#1384);
#1384=AXIS2_PLACEMENT_3D('',#98,#1385,#1386);
#1385=DIRECTION('',(-0,1,0));
#1386=DIRECTION('',(1,0,0));
#1387=FACE_BOUND('',#1388,.T.);
#1388=EDGE_LOOP('',(#1389,#1390,#1391));
#1389=ORIENTED_EDGE('',*,*,#1392,.T.);
#1390=ORIENTED_EDGE('',*,*,#1393,.T.);
#1391=ORIENTED_EDGE('',*,*,#1394,.T.);
#1392=EDGE_CURVE('',#99,#87,#1395,.F.);
#1393=EDGE_CURVE('',#87,#93,#1396,.T.);
#1394=EDGE_CURVE('',#93,#99,#1397,.T.);
#1395=LINE('',#98,#1398);
#1396=LINE('',#86,#1399);
#1397=LINE('',#92,#1400);
#1398=VECTOR('',#1401,1.0);
#1399=VECTOR('',#1402,1.0);
#1400=VECTOR('',#1403,1.0);
#1401=DIRECTION('',(1,0,0));
#1402=DIRECTION('',(0,0,-1));
#1403=DIRECTION('',(-0.9999647745601278,0,0.008393428317009354));
#1404=FACE_SURFACE('',(#1409),#1405,.T.);
#1405=PLANE('',#1406);
#1406=AXIS2_PLACEMENT_3D('',#98,#1407,#1408);
#1407=DIRECTION('',(0,1,0));
#1408=DIRECTION('',(0.9999647745601278,0,-0.008393428317009354));
#1409=FACE_BOUND('',#1410,.T.);
#1410=EDGE_LOOP('',(#1411,#1412,#1413));
#1411=ORIENTED_EDGE('',*,*,#1414,.T.);
#1412=ORIENTED_EDGE('',*,*,#1415,.T.);
#1413=ORIENTED_EDGE('',*,*,#1416,.T.);
#1414=EDGE_CURVE('',#99,#93,#1417,.F.);
#1415=EDGE_CURVE('',#93,#105,#1418,.T.);
#1416=EDGE_CURVE('',#105,#99,#1419,.T.);
#1417=LINE('',#98,#1420);
#1418=LINE('',#92,#1421);
#1419=LINE('',#104,#1422);
#1420=VECTOR('',#1423,1.0);
#1421=VECTOR('',#1424,1.0);
#1422=VECTOR('',#1425,1.0);
#1423=DIRECTION('',(0.9999647745601278,0,-0.008393428317009354));
#1424=DIRECTION('',(-1,0,0));
#1425=DIRECTION('',(0,0,1));
#1426=FACE_SURFACE('',(#1431),#1427,.T.);
#1427=PLANE('',#1428);
#1428=AXIS2_PLACEMENT_3D('',#88,#1429,#1430);
#1429=DIRECTION('',(-0,-1,0));
#1430=DIRECTION('',(-1,0,0));
#1431=FACE_BOUND('',#1432,.T.);
#1432=EDGE_LOOP('',(#1433,#1434,#1435));
#1433=ORIENTED_EDGE('',*,*,#1436,.T.);
#1434=ORIENTED_EDGE('',*,*,#1437,.T.);
#1435=ORIENTED_EDGE('',*,*,#1438,.T.);
#1436=EDGE_CURVE('',#89,#101,#1439,.F.);
#1437=EDGE_CURVE('',#101,#103,#1440,.T.);
#1438=EDGE_CURVE('',#103,#89,#1441,.T.);
#1439=LINE('',#88,#1442);
#1440=LINE('',#100,#1443);
#1441=LINE('',#102,#1444);
#1442=VECTOR('',#1445,1.0);
#1443=VECTOR('',#1446,1.0);
#1444=VECTOR('',#1447,1.0);
#1445=DIRECTION('',(-1,0,0));
#1446=DIRECTION('',(0,0,-1));
#1447=DIRECTION('',(0.9999647745601278,0,0.008393428317009354));
#1448=FACE_SURFACE('',(#1453),#1449,.T.);
#1449=PLANE('',#1450);
#1450=AXIS2_PLACEMENT_3D('',#88,#1451,#1452);
#1451=DIRECTION('',(0,-1,-0));
#1452=DIRECTION('',(-0.9999647745601278,0,-0.008393428317009354));
#1453=FACE_BOUND('',#1454,.T.);
#1454=EDGE_LOOP('',(#1455,#1456,#1457));
#1455=ORIENTED_EDGE('',*,*,#1458,.T.);
#1456=ORIENTED_EDGE('',*,*,#1459,.T.);
#1457=ORIENTED_EDGE('',*,*,#1460,.T.);
#1458=EDGE_CURVE('',#89,#103,#1461,.F.);
#1459=EDGE_CURVE('',#103,#91,#1462,.T.);
#1460=EDGE_CURVE('',#91,#89,#1463,.T.);
#1461=LINE('',#88,#1464);
#1462=LINE('',#102,#1465);
#1463=LINE('',#90,#1466);
#1464=VECTOR('',#1467,1.0);
#1465=VECTOR('',#1468,1.0);
#1466=VECTOR('',#1469,1.0);
#1467=DIRECTION('',(-0.9999647745601278,0,-0.008393428317009354));
#1468=DIRECTION('',(1,0,0));
#1469=DIRECTION('',(0,0,1));
#1470=FACE_SURFACE('',(#1475),#1471,.T.);
#1471=PLANE('',#1472);
#1472=AXIS2_PLACEMENT_3D('',#52,#1473,#1474);
#1473=DIRECTION('',(-1,0,-0));
#1474=DIRECTION('',(0,0,-1));
#1475=FACE_BOUND('',#1476,.T.);
#1476=EDGE_LOOP('',(#1477,#1478,#1479));
#1477=ORIENTED_EDGE('',*,*,#1480,.T.);
#1478=ORIENTED_EDGE('',*,*,#1481,.T.);
#1479=ORIENTED_EDGE('',*,*,#1482,.T.);
#1480=EDGE_CURVE('',#53,#51,#1483,.F.);
#1481=EDGE_CURVE('',#51,#83,#1484,.T.);
#1482=EDGE_CURVE('',#83,#53,#1485,.T.);
#1483=LINE('',#52,#1486);
#1484=LINE('',#50,#1487);
#1485=LINE('',#82,#1488);
#1486=VECTOR('',#1489,1.0);
#1487=VECTOR('',#1490,1.0);
#1488=VECTOR('',#1491,1.0);
#1489=DIRECTION('',(0,0,-1));
#1490=DIRECTION('',(0,-1,0));
#1491=DIRECTION('',(0,0.606866362576309,0.7948038864860941));
#1492=FACE_SURFACE('',(#1497),#1493,.T.);
#1493=PLANE('',#1494);
#1494=AXIS2_PLACEMENT_3D('',#52,#1495,#1496);
#1495=DIRECTION('',(-1,-0,0));
#1496=DIRECTION('',(0,-0.606866362576309,-0.7948038864860941));
#1497=FACE_BOUND('',#1498,.T.);
#1498=EDGE_LOOP('',(#1499,#1500,#1501));
#1499=ORIENTED_EDGE('',*,*,#1502,.T.);
#1500=ORIENTED_EDGE('',*,*,#1503,.T.);
#1501=ORIENTED_EDGE('',*,*,#1504,.T.);
#1502=EDGE_CURVE('',#53,#83,#1505,.F.);
#1503=EDGE_CURVE('',#83,#67,#1506,.T.);
#1504=EDGE_CURVE('',#67,#53,#1507,.T.);
#1505=LINE('',#52,#1508);
#1506=LINE('',#82,#1509);
#1507=LINE('',#66,#1510);
#1508=VECTOR('',#1511,1.0);
#1509=VECTOR('',#1512,1.0);
#1510=VECTOR('',#1513,1.0);
#1511=DIRECTION('',(0,-0.606866362576309,-0.7948038864860941));
#1512=DIRECTION('',(0,0,1));
#1513=DIRECTION('',(0,1,0));
#1514=FACE_SURFACE('',(#1519),#1515,.T.);
#1515=PLANE('',#1516);
#1516=AXIS2_PLACEMENT_3D('',#84,#1517,#1518);
#1517=DIRECTION('',(1,0,0));
#1518=DIRECTION('',(0,1,0));
#1519=FACE_BOUND('',#1520,.T.);
#1520=EDGE_LOOP('',(#1521,#1522,#1523));
#1521=ORIENTED_EDGE('',*,*,#1524,.T.);
#1522=ORIENTED_EDGE('',*,*,#1525,.T.);
#1523=ORIENTED_EDGE('',*,*,#1526,.T.);
#1524=EDGE_CURVE('',#85,#57,#1527,.F.);
#1525=EDGE_CURVE('',#57,#55,#1528,.T.);
#1526=EDGE_CURVE('',#55,#85,#1529,.T.);
#1527=LINE('',#84,#1530);
#1528=LINE('',#56,#1531);
#1529=LINE('',#54,#1532);
#1530=VECTOR('',#1533,1.0);
#1531=VECTOR('',#1534,1.0);
#1532=VECTOR('',#1535,1.0);
#1533=DIRECTION('',(0,1,0));
#1534=DIRECTION('',(0,0,1));
#1535=DIRECTION('',(0,-0.606866362576309,-0.7948038864860941));
#1536=FACE_SURFACE('',(#1541),#1537,.T.);
#1537=PLANE('',#1538);
#1538=AXIS2_PLACEMENT_3D('',#84,#1539,#1540);
#1539=DIRECTION('',(1,0,0));
#1540=DIRECTION('',(0,0.606866362576309,0.7948038864860941));
#1541=FACE_BOUND('',#1542,.T.);
#1542=EDGE_LOOP('',(#1543,#1544,#1545));
#1543=ORIENTED_EDGE('',*,*,#1546,.T.);
#1544=ORIENTED_EDGE('',*,*,#1547,.T.);
#1545=ORIENTED_EDGE('',*,*,#1548,.T.);
#1546=EDGE_CURVE('',#85,#55,#1549,.F.);
#1547=EDGE_CURVE('',#55,#69,#1550,.T.);
#1548=EDGE_CURVE('',#69,#85,#1551,.T.);
#1549=LINE('',#84,#1552);
#1550=LINE('',#54,#1553);
#1551=LINE('',#68,#1554);
#1552=VECTOR('',#1555,1.0);
#1553=VECTOR('',#1556,1.0);
#1554=VECTOR('',#1557,1.0);
#1555=DIRECTION('',(0,0.606866362576309,0.7948038864860941));
#1556=DIRECTION('',(0,-1,0));
#1557=DIRECTION('',(0,0,-1));
#1558=FACE_SURFACE('',(#1563),#1559,.T.);
#1559=PLANE('',#1560);
#1560=AXIS2_PLACEMENT_3D('',#82,#1561,#1562);
#1561=DIRECTION('',(0,0,-1));
#1562=DIRECTION('',(0,1,0));
#1563=FACE_BOUND('',#1564,.T.);
#1564=EDGE_LOOP('',(#1565,#1566,#1567));
#1565=ORIENTED_EDGE('',*,*,#1568,.T.);
#1566=ORIENTED_EDGE('',*,*,#1569,.T.);
#1567=ORIENTED_EDGE('',*,*,#1570,.T.);
#1568=EDGE_CURVE('',#83,#51,#1571,.F.);
#1569=EDGE_CURVE('',#51,#57,#1572,.T.);
#1570=EDGE_CURVE('',#57,#83,#1573,.T.);
#1571=LINE('',#82,#1574);
#1572=LINE('',#50,#1575);
#1573=LINE('',#56,#1576);
#1574=VECTOR('',#1577,1.0);
#1575=VECTOR('',#1578,1.0);
#1576=VECTOR('',#1579,1.0);
#1577=DIRECTION('',(0,1,0));
#1578=DIRECTION('',(1,0,0));
#1579=DIRECTION('',(-0.9773587195071883,-0.21158906730563634,0));
#1580=FACE_SURFACE('',(#1585),#1581,.T.);
#1581=PLANE('',#1582);
#1582=AXIS2_PLACEMENT_3D('',#82,#1583,#1584);
#1583=DIRECTION('',(0,0,-1));
#1584=DIRECTION('',(0.9773587195071883,0.21158906730563634,0));
#1585=FACE_BOUND('',#1586,.T.);
#1586=EDGE_LOOP('',(#1587,#1588,#1589));
#1587=ORIENTED_EDGE('',*,*,#1590,.T.);
#1588=ORIENTED_EDGE('',*,*,#1591,.T.);
#1589=ORIENTED_EDGE('',*,*,#1592,.T.);
#1590=EDGE_CURVE('',#83,#57,#1593,.F.);
#1591=EDGE_CURVE('',#57,#85,#1594,.T.);
#1592=EDGE_CURVE('',#85,#83,#1595,.T.);
#1593=LINE('',#82,#1596);
#1594=LINE('',#56,#1597);
#1595=LINE('',#84,#1598);
#1596=VECTOR('',#1599,1.0);
#1597=VECTOR('',#1600,1.0);
#1598=VECTOR('',#1601,1.0);
#1599=DIRECTION('',(0.9773587195071883,0.21158906730563634,0));
#1600=DIRECTION('',(0,-1,0));
#1601=DIRECTION('',(-1,0,0));
ENDSEC;
END-ISO-10303-21;
