M48
; DRILL file KiCad 10.0.5 date 2026-08-12T20:30:35
; FORMAT={-:-/ absolute / metric / decimal}
; #@! TF.CreationDate,2026-08-12T20:30:35+03:00
; #@! TF.GenerationSoftware,Kicad,Pcbnew,10.0.5
; #@! TF.FileFunction,NonPlated,1,2,NPTH
FMAT,2
METRIC
; #@! TA.AperFunction,NonPlated,NPTH,ComponentDrill
T1C1.750
; #@! TA.AperFunction,NonPlated,NPTH,ComponentDrill
T2C3.988
%
G90
G05
T1
X4.87Y-84.46
X4.88Y-122.5
X4.92Y-65.34
X4.92Y-103.5
X5.13Y-141.54
X15.03Y-84.46
X15.04Y-122.5
X15.08Y-65.34
X15.08Y-103.5
X15.29Y-141.54
X23.84Y-103.5
X23.92Y-84.46
X23.93Y-122.5
X23.97Y-65.34
X24.18Y-141.54
X34.0Y-103.5
X34.08Y-84.46
X34.09Y-122.5
X34.13Y-65.34
X34.34Y-141.54
X42.89Y-103.5
X42.97Y-84.46
X42.98Y-122.5
X43.02Y-65.34
X43.23Y-141.54
X53.05Y-103.5
X53.13Y-84.46
X53.14Y-122.5
X53.18Y-65.34
X53.39Y-141.54
X61.94Y-103.5
X62.03Y-84.5
X62.03Y-122.5
X62.07Y-65.34
X72.1Y-103.5
X72.19Y-84.5
X72.19Y-122.5
X72.23Y-65.34
X80.99Y-103.5
X81.08Y-84.5
X81.08Y-122.5
X81.12Y-65.34
X91.15Y-103.5
X91.24Y-84.5
X91.24Y-122.5
X91.28Y-65.34
X100.04Y-103.5
X100.13Y-84.5
X100.13Y-122.5
X100.17Y-65.34
X109.84Y-141.5
X110.2Y-103.5
X110.29Y-84.5
X110.29Y-122.5
X110.33Y-65.34
X119.09Y-103.5
X119.18Y-84.5
X119.18Y-122.5
X119.22Y-65.34
X120.0Y-141.5
X129.25Y-103.5
X129.34Y-84.5
X129.34Y-122.5
X129.38Y-65.34
X138.22Y-103.5
X138.23Y-84.5
X138.23Y-122.5
X138.27Y-65.34
X148.38Y-103.5
X148.39Y-84.5
X148.39Y-122.5
X148.43Y-65.34
X157.27Y-103.5
X157.28Y-84.5
X157.28Y-122.5
X157.32Y-65.34
X167.43Y-103.5
X167.44Y-84.5
X167.44Y-122.5
X167.48Y-65.34
X176.32Y-103.5
X176.33Y-84.5
X176.33Y-122.5
X176.34Y-141.5
X176.37Y-65.34
X186.48Y-103.5
X186.49Y-84.5
X186.49Y-122.5
X186.5Y-141.5
X186.53Y-65.34
X195.37Y-103.5
X195.38Y-84.5
X195.38Y-122.5
X195.39Y-141.5
X195.42Y-65.34
X205.53Y-103.5
X205.54Y-84.5
X205.54Y-122.5
X205.55Y-141.5
X205.58Y-65.34
X214.42Y-103.5
X214.42Y-122.65
X214.43Y-84.5
X214.44Y-141.5
X214.47Y-65.34
X224.58Y-103.5
X224.58Y-122.65
X224.59Y-84.5
X224.6Y-141.5
X224.63Y-65.34
X233.47Y-122.65
X233.49Y-141.5
X243.63Y-122.65
X243.65Y-141.5
X252.42Y-65.34
X252.54Y-141.5
X262.58Y-65.34
X262.7Y-141.5
T2
X9.95Y-84.46
X9.96Y-122.5
X10.0Y-65.34
X10.0Y-103.5
X10.21Y-141.54
X28.92Y-103.5
X29.0Y-84.46
X29.01Y-122.5
X29.05Y-65.34
X29.26Y-141.54
X47.97Y-103.5
X48.05Y-84.46
X48.06Y-122.5
X48.1Y-65.34
X48.31Y-141.54
X64.994Y-149.755
X67.02Y-103.5
X67.11Y-84.5
X67.11Y-122.5
X67.15Y-65.34
X86.07Y-103.5
X86.16Y-84.5
X86.16Y-122.5
X86.2Y-65.34
X105.12Y-103.5
X105.21Y-84.5
X105.21Y-122.5
X105.25Y-65.34
X114.92Y-141.5
X124.17Y-103.5
X124.26Y-84.5
X124.26Y-122.5
X124.3Y-65.34
X143.3Y-103.5
X143.31Y-84.5
X143.31Y-122.5
X143.35Y-65.34
X162.35Y-103.5
X162.36Y-84.5
X162.36Y-122.5
X162.4Y-65.34
X165.006Y-149.755
X181.4Y-103.5
X181.41Y-84.5
X181.41Y-122.5
X181.42Y-141.5
X181.45Y-65.34
X200.45Y-103.5
X200.46Y-84.5
X200.46Y-122.5
X200.47Y-141.5
X200.5Y-65.34
X219.5Y-103.5
X219.5Y-122.65
X219.51Y-84.5
X219.52Y-141.5
X219.55Y-65.34
X238.55Y-122.65
X238.57Y-141.5
X257.5Y-65.34
X257.62Y-141.5
M30
