M48
; DRILL file KiCad 10.0.5 date 2026-08-12T20:30:35
; FORMAT={-:-/ absolute / metric / decimal}
; #@! TF.CreationDate,2026-08-12T20:30:35+03:00
; #@! TF.GenerationSoftware,Kicad,Pcbnew,10.0.5
; #@! TF.FileFunction,Plated,1,2,PTH
FMAT,2
METRIC
; #@! TA.AperFunction,Plated,PTH,ComponentDrill
T1C0.800
; #@! TA.AperFunction,Plated,PTH,ComponentDrill
T2C1.000
; #@! TA.AperFunction,Plated,PTH,ComponentDrill
T3C1.524
; #@! TA.AperFunction,Plated,PTH,ComponentDrill
T4C3.048
%
G90
G05
T1
X19.45Y-82.0
X19.45Y-89.62
X19.46Y-120.04
X19.46Y-127.66
X19.5Y-62.88
X19.5Y-70.5
X19.5Y-101.04
X19.5Y-108.66
X19.71Y-139.08
X19.71Y-146.7
X38.42Y-101.04
X38.42Y-108.66
X38.5Y-82.0
X38.5Y-89.62
X38.51Y-120.04
X38.51Y-127.66
X38.55Y-62.88
X38.55Y-70.5
X38.76Y-139.08
X38.76Y-146.7
X57.47Y-101.04
X57.47Y-108.66
X57.55Y-82.0
X57.55Y-89.62
X57.56Y-120.04
X57.56Y-127.66
X57.6Y-62.88
X57.6Y-70.5
X57.81Y-139.08
X57.81Y-146.7
X76.52Y-101.04
X76.52Y-108.66
X76.61Y-82.04
X76.61Y-89.66
X76.61Y-120.04
X76.61Y-127.66
X76.65Y-62.88
X76.65Y-70.5
X95.57Y-101.04
X95.57Y-108.66
X95.66Y-82.04
X95.66Y-89.66
X95.66Y-120.04
X95.66Y-127.66
X95.7Y-62.88
X95.7Y-70.5
X114.62Y-101.04
X114.62Y-108.66
X114.71Y-82.04
X114.71Y-89.66
X114.71Y-120.04
X114.71Y-127.66
X114.75Y-62.88
X114.75Y-70.5
X124.5Y-139.19
X124.5Y-146.81
X133.67Y-101.04
X133.67Y-108.66
X133.76Y-82.04
X133.76Y-89.66
X133.76Y-120.04
X133.76Y-127.66
X133.8Y-62.88
X133.8Y-70.5
X152.8Y-101.04
X152.8Y-108.66
X152.81Y-82.04
X152.81Y-89.66
X152.81Y-120.04
X152.81Y-127.66
X152.85Y-62.88
X152.85Y-70.5
X171.85Y-101.04
X171.85Y-108.66
X171.86Y-82.04
X171.86Y-89.66
X171.86Y-120.04
X171.86Y-127.66
X171.9Y-62.88
X171.9Y-70.5
X190.9Y-101.04
X190.9Y-108.66
X190.91Y-82.04
X190.91Y-89.66
X190.91Y-120.04
X190.91Y-127.66
X190.92Y-139.04
X190.92Y-146.66
X190.95Y-62.88
X190.95Y-70.5
X209.95Y-101.04
X209.95Y-108.66
X209.96Y-82.04
X209.96Y-89.66
X209.96Y-120.04
X209.96Y-127.66
X209.97Y-139.04
X209.97Y-146.66
X210.0Y-62.88
X210.0Y-70.5
X229.0Y-101.04
X229.0Y-108.66
X229.0Y-120.19
X229.0Y-127.81
X229.01Y-82.04
X229.01Y-89.66
X229.02Y-139.04
X229.02Y-146.66
X229.05Y-62.88
X229.05Y-70.5
X248.05Y-120.19
X248.05Y-127.81
X248.07Y-139.04
X248.07Y-146.66
X267.0Y-62.88
X267.0Y-70.5
X267.12Y-139.04
X267.12Y-146.66
T2
X274.11Y-55.182
X274.11Y-57.722
X274.11Y-60.262
X274.11Y-62.802
X274.11Y-65.343
X274.11Y-67.882
X274.11Y-70.422
X274.11Y-72.962
X274.11Y-75.502
X274.11Y-78.042
X274.11Y-80.582
X274.11Y-83.123
X274.11Y-85.662
X274.11Y-88.203
X274.11Y-90.742
X274.11Y-93.282
X274.11Y-95.822
X274.11Y-98.362
X274.11Y-100.902
X274.11Y-103.442
X291.89Y-55.182
X291.89Y-57.722
X291.89Y-60.262
X291.89Y-62.802
X291.89Y-65.343
X291.89Y-67.882
X291.89Y-70.422
X291.89Y-72.962
X291.89Y-75.502
X291.89Y-78.042
X291.89Y-80.582
X291.89Y-83.123
X291.89Y-85.662
X291.89Y-88.203
X291.89Y-90.742
X291.89Y-93.282
X291.89Y-95.822
X291.89Y-98.362
X291.89Y-100.902
X291.89Y-103.442
T3
X6.14Y-81.92
X6.15Y-119.96
X6.19Y-62.8
X6.19Y-100.96
X6.4Y-139.0
X12.49Y-79.38
X12.5Y-117.42
X12.54Y-60.26
X12.54Y-98.42
X12.75Y-136.46
X25.11Y-100.96
X25.19Y-81.92
X25.2Y-119.96
X25.24Y-62.8
X25.45Y-139.0
X31.46Y-98.42
X31.54Y-79.38
X31.55Y-117.42
X31.59Y-60.26
X31.8Y-136.46
X44.16Y-100.96
X44.24Y-81.92
X44.25Y-119.96
X44.29Y-62.8
X44.5Y-139.0
X50.51Y-98.42
X50.59Y-79.38
X50.6Y-117.42
X50.64Y-60.26
X50.85Y-136.46
X63.21Y-100.96
X63.3Y-81.96
X63.3Y-119.96
X63.34Y-62.8
X69.56Y-98.42
X69.65Y-79.42
X69.65Y-117.42
X69.69Y-60.26
X82.26Y-100.96
X82.35Y-81.96
X82.35Y-119.96
X82.39Y-62.8
X88.61Y-98.42
X88.7Y-79.42
X88.7Y-117.42
X88.74Y-60.26
X101.31Y-100.96
X101.4Y-81.96
X101.4Y-119.96
X101.44Y-62.8
X107.66Y-98.42
X107.75Y-79.42
X107.75Y-117.42
X107.79Y-60.26
X111.11Y-138.96
X117.46Y-136.42
X120.36Y-100.96
X120.45Y-81.96
X120.45Y-119.96
X120.49Y-62.8
X126.71Y-98.42
X126.8Y-79.42
X126.8Y-117.42
X126.84Y-60.26
X139.49Y-100.96
X139.5Y-81.96
X139.5Y-119.96
X139.54Y-62.8
X145.84Y-98.42
X145.85Y-79.42
X145.85Y-117.42
X145.89Y-60.26
X158.54Y-100.96
X158.55Y-81.96
X158.55Y-119.96
X158.59Y-62.8
X164.89Y-98.42
X164.9Y-79.42
X164.9Y-117.42
X164.94Y-60.26
X177.59Y-100.96
X177.6Y-81.96
X177.6Y-119.96
X177.61Y-138.96
X177.64Y-62.8
X183.94Y-98.42
X183.95Y-79.42
X183.95Y-117.42
X183.96Y-136.42
X183.99Y-60.26
X196.64Y-100.96
X196.65Y-81.96
X196.65Y-119.96
X196.66Y-138.96
X196.69Y-62.8
X202.99Y-98.42
X203.0Y-79.42
X203.0Y-117.42
X203.01Y-136.42
X203.04Y-60.26
X215.69Y-100.96
X215.69Y-120.11
X215.7Y-81.96
X215.71Y-138.96
X215.74Y-62.8
X222.04Y-98.42
X222.04Y-117.57
X222.05Y-79.42
X222.06Y-136.42
X222.09Y-60.26
X234.74Y-120.11
X234.76Y-138.96
X241.09Y-117.57
X241.11Y-136.42
X253.69Y-62.8
X253.81Y-138.96
X260.04Y-60.26
X260.16Y-136.42
T4
X64.994Y-134.515
X165.006Y-134.515
M30
